<svg width="0" height="0" viewBox="0 0 20 20" fill="none" xmlns="http://www.w3.org/2000/svg">
    <path
        d="M16.1168 12.075L15.2834 10.6917C15.1084 10.3834 14.9501 9.80002 14.9501 9.45835V7.35002C14.9501 5.39169 13.8001 3.70002 12.1418 2.90835C11.7084 2.14169 10.9084 1.66669 9.99178 1.66669C9.08345 1.66669 8.26678 2.15835 7.83345 2.93335C6.20845 3.74169 5.08345 5.41669 5.08345 7.35002V9.45835C5.08345 9.80002 4.92512 10.3834 4.75012 10.6834L3.90845 12.075C3.57512 12.6334 3.50012 13.25 3.70845 13.8167C3.90845 14.375 4.38345 14.8084 5.00012 15.0167C6.61678 15.5667 8.31678 15.8334 10.0168 15.8334C11.7168 15.8334 13.4168 15.5667 15.0334 15.025C15.6168 14.8334 16.0668 14.3917 16.2834 13.8167C16.5001 13.2417 16.4418 12.6084 16.1168 12.075Z"
        fill="currentColor" />
    <path
        d="M12.3582 16.675C12.0082 17.6417 11.0832 18.3334 9.9999 18.3334C9.34157 18.3334 8.69157 18.0667 8.23324 17.5917C7.96657 17.3417 7.76657 17.0084 7.6499 16.6667C7.75824 16.6834 7.86657 16.6917 7.98324 16.7084C8.1749 16.7334 8.3749 16.7584 8.5749 16.775C9.0499 16.8167 9.53324 16.8417 10.0166 16.8417C10.4916 16.8417 10.9666 16.8167 11.4332 16.775C11.6082 16.7584 11.7832 16.75 11.9499 16.725C12.0832 16.7084 12.2166 16.6917 12.3582 16.675Z"
        fill="currentColor" />
</svg>