<svg width="0" height="0" viewBox="0 0 16 16" fill="none" xmlns="http://www.w3.org/2000/svg">
<path d="M9.6204 12.5467C9.49374 12.5467 9.36707 12.5001 9.26707 12.4001C9.07374 12.2067 9.07374 11.8867 9.26707 11.6934L12.9604 8.00008L9.26707 4.30674C9.07374 4.11341 9.07374 3.79341 9.26707 3.60008C9.4604 3.40674 9.7804 3.40674 9.97374 3.60008L14.0204 7.64674C14.2137 7.84008 14.2137 8.16008 14.0204 8.35341L9.97374 12.4001C9.87374 12.5001 9.74707 12.5467 9.6204 12.5467Z" fill="currentColor"/>
<path d="M13.553 8.5H2.33301C2.05967 8.5 1.83301 8.27333 1.83301 8C1.83301 7.72667 2.05967 7.5 2.33301 7.5H13.553C13.8263 7.5 14.053 7.72667 14.053 8C14.053 8.27333 13.8263 8.5 13.553 8.5Z" fill="currentColor"/>
</svg>
