<svg width="0" height="0" viewBox="0 0 24 24" fill="none" xmlns="http://www.w3.org/2000/svg">
<path d="M19.7812 10.5971H14.625V6.09711H12.9375C13.4598 5.3998 13.7405 4.55116 13.7369 3.67991C13.7369 2.38429 13.1238 1.16689 12.1369 0.50291L11.7182 0.221191L11.2996 0.50291C10.3125 1.16699 9.69961 2.38433 9.69961 3.67991C9.69609 4.55117 9.97684 5.3998 10.4992 6.09707H8.625V10.5971H4.21875C3.49794 10.5979 2.80689 10.8846 2.29721 11.3943C1.78752 11.904 1.50082 12.595 1.5 13.3158V21.7502C1.50045 22.1479 1.65863 22.5292 1.93983 22.8104C2.22104 23.0916 2.60231 23.2498 3 23.2502H21C21.3977 23.2498 21.779 23.0916 22.0602 22.8104C22.3414 22.5292 22.4996 22.1479 22.5 21.7502V13.3159C22.4992 12.5951 22.2125 11.904 21.7028 11.3943C21.1931 10.8846 20.5021 10.5979 19.7812 10.5971ZM11.7182 2.135C12.0459 2.54207 12.2369 3.09435 12.2369 3.67996C12.2369 4.26557 12.0459 4.81789 11.7182 5.22491C11.3906 4.81789 11.1996 4.26557 11.1996 3.67991C11.1996 3.09425 11.3906 2.54207 11.7182 2.135ZM10.125 7.59711H13.125V10.5971H10.125V7.59711ZM3 13.3159C3.00037 12.9927 3.1289 12.683 3.35737 12.4545C3.58585 12.226 3.89563 12.0975 4.21875 12.0971H19.7812C20.1044 12.0975 20.4141 12.226 20.6426 12.4545C20.8711 12.683 20.9996 12.9927 21 13.3159V14.796L19.9875 15.2428C19.7895 15.3299 19.5755 15.3749 19.3592 15.3749C19.1428 15.3749 18.9288 15.3299 18.7308 15.2428L16.9688 14.4653L15.2062 15.2428C15.0082 15.3299 14.7942 15.3749 14.5779 15.3749C14.3615 15.3749 14.1476 15.3299 13.9495 15.2428L12.1875 14.4652L10.425 15.2427C10.227 15.3299 10.013 15.3749 9.79664 15.3749C9.58029 15.3749 9.3663 15.3299 9.16828 15.2427L7.40625 14.4653L5.64408 15.2427C5.44606 15.3299 5.23207 15.3749 5.01572 15.3749C4.79937 15.3749 4.58538 15.3299 4.38736 15.2427L3 14.6307V13.3159ZM21 21.7502H3V16.2702L3.78178 16.6151C4.17062 16.7862 4.5908 16.8746 5.01562 16.8746C5.44045 16.8746 5.86063 16.7862 6.24947 16.6151L7.40625 16.1047L8.56308 16.6151C8.95191 16.7862 9.37208 16.8746 9.7969 16.8746C10.2217 16.8746 10.6419 16.7862 11.0307 16.6151L12.1875 16.1047L13.3442 16.6151C13.7331 16.7862 14.1532 16.8746 14.578 16.8746C15.0028 16.8746 15.423 16.7862 15.8118 16.6151L16.9688 16.1047L18.1255 16.6152C18.5144 16.7862 18.9345 16.8746 19.3593 16.8746C19.7841 16.8746 20.2043 16.7862 20.5931 16.6152L21.0006 16.4354L21.0009 21.7502H21Z" fill="currentColor"/>
</svg>
