<svg width="0" height="0" viewBox="0 0 24 24" fill="currentColor" xmlns="http://www.w3.org/2000/svg">
<path d="M16.2004 12.3008C15.8004 12.3008 15.4004 12.6008 15.4004 13.1008C15.4004 13.5008 15.7004 13.9008 16.2004 13.9008C16.7004 13.9008 17.0004 13.6008 17.0004 13.1008C17.0004 12.6008 16.6004 12.3008 16.2004 12.3008Z" fill="currentColor"/>
<path d="M11.8 12.3008C11.4 12.3008 11 12.6008 11 13.1008C11 13.5008 11.3 13.9008 11.8 13.9008C12.3 13.9008 12.6 13.6008 12.6 13.1008C12.5 12.6008 12.2 12.3008 11.8 12.3008Z" fill="currentColor"/>
<path d="M7.3 12.3008C6.9 12.3008 6.5 12.6008 6.5 13.1008C6.5 13.5008 6.8 13.9008 7.3 13.9008C7.8 13.9008 8.1 13.6008 8.1 13.1008C8.1 12.6008 7.7 12.3008 7.3 12.3008Z" fill="currentColor"/>
<path d="M16.2004 16.1992C15.8004 16.1992 15.4004 16.4992 15.4004 16.9992C15.4004 17.4992 15.7004 17.7992 16.2004 17.7992C16.7004 17.7992 17.0004 17.4992 17.0004 16.9992C17.0004 16.4992 16.6004 16.1992 16.2004 16.1992Z" fill="currentColor"/>
<path d="M11.8 16.1992C11.4 16.1992 11 16.4992 11 16.9992C11 17.4992 11.3 17.7992 11.8 17.7992C12.3 17.7992 12.6 17.4992 12.6 16.9992C12.6 16.4992 12.2 16.1992 11.8 16.1992Z" fill="currentColor"/>
<path d="M7.3 16.1992C6.9 16.1992 6.5 16.4992 6.5 16.9992C6.5 17.4992 6.8 17.7992 7.3 17.7992C7.8 17.7992 8.1 17.4992 8.1 16.9992C8.1 16.4992 7.7 16.1992 7.3 16.1992Z" fill="currentColor"/>
<path d="M20.1 4.1C19.2 3.2 18 2.8 16.6 2.7V1.8C16.6 1.4 16.3 1 15.8 1C15.3 1 15 1.3 15 1.8V2.6H8.5V1.8C8.5 1.3 8.1 1 7.7 1C7.3 1 7 1.3 7 1.8V2.7C3.9 2.8 2 4.8 2 8V17C2 20.4 4.1 22.5 7.5 22.5H16C19.4 22.5 21.5 20.4 21.5 17.1V8C21.5 6.4 21 5 20.1 4.1ZM7 4.1V5C7 5.4 7.3 5.8 7.8 5.8C8.3 5.8 8.5 5.5 8.5 5V4H15V5C15 5.4 15.3 5.8 15.8 5.8C16.3 5.8 16.6 5.5 16.6 5V4.1C17.6 4.2 18.5 4.5 19.1 5.1C19.8 5.8 20.1 6.7 20.1 8V8.4H3.5V8C3.5 5.7 4.7 4.3 7 4.1ZM16 21H7.5C4.9 21 3.5 19.6 3.5 17V9.9H20V17.1C20 19.6 18.6 21 16 21Z" fill="currentColor"/>
</svg>
