<svg width="0" height="0" viewBox="0 0 56 56" fill="none" xmlns="http://www.w3.org/2000/svg">
<circle cx="28" cy="28" r="19" fill="#765DD1" stroke="white" stroke-width="2"/>
<circle opacity="0.2" cx="28" cy="28" r="28" fill="#765DD1"/>
<path d="M34.5 25.3333C34.5 25.6067 34.2733 25.8333 34 25.8333H22C21.7267 25.8333 21.5 25.6067 21.5 25.3333C21.5 25.06 21.7267 24.8333 22 24.8333H22.68L22.9333 23.6267C23.1733 22.46 23.6733 21.3867 25.66 21.3867H30.34C32.3267 21.3867 32.8267 22.46 33.0667 23.6267L33.32 24.8333H34C34.2733 24.8333 34.5 25.06 34.5 25.3333Z" fill="white"/>
<path d="M34.7866 29.1066C34.6866 28.0066 34.3933 26.8333 32.2533 26.8333H23.7466C21.6066 26.8333 21.32 28.0066 21.2133 29.1066L20.84 33.1666C20.7933 33.6733 20.96 34.18 21.3066 34.56C21.66 34.9466 22.16 35.1666 22.6933 35.1666H23.9466C25.0266 35.1666 25.2333 34.5466 25.3666 34.14L25.5 33.74C25.6533 33.28 25.6933 33.1666 26.2933 33.1666H29.7066C30.3066 33.1666 30.3266 33.2333 30.5 33.74L30.6333 34.14C30.7666 34.5466 30.9733 35.1666 32.0533 35.1666H33.3066C33.8333 35.1666 34.34 34.9466 34.6933 34.56C35.04 34.18 35.2066 33.6733 35.16 33.1666L34.7866 29.1066ZM26 30.5H24C23.7266 30.5 23.5 30.2733 23.5 30C23.5 29.7266 23.7266 29.5 24 29.5H26C26.2733 29.5 26.5 29.7266 26.5 30C26.5 30.2733 26.2733 30.5 26 30.5ZM32 30.5H30C29.7266 30.5 29.5 30.2733 29.5 30C29.5 29.7266 29.7266 29.5 30 29.5H32C32.2733 29.5 32.5 29.7266 32.5 30C32.5 30.2733 32.2733 30.5 32 30.5Z" fill="white"/>
</svg>
