<svg width="0" height="0" viewBox="0 0 24 24" fill="none" xmlns="http://www.w3.org/2000/svg">
<path d="M15.7 14.2C15.8833 14.2833 16.071 14.2917 16.263 14.225C16.455 14.1583 16.584 14.0333 16.65 13.85C16.7833 13.55 16.875 13.246 16.925 12.938C16.975 12.63 17 12.3173 17 12C17 11.3667 16.879 10.7377 16.637 10.113C16.395 9.48833 16.0327 8.934 15.55 8.45C15.0667 7.96667 14.5207 7.60833 13.912 7.375C13.3033 7.14167 12.6827 7.025 12.05 7.025L12.5 6.575C12.65 6.425 12.721 6.25 12.713 6.05C12.705 5.85 12.6257 5.675 12.475 5.525C12.325 5.375 12.15 5.3 11.95 5.3C11.75 5.3 11.575 5.375 11.425 5.525L9.45 7.475C9.35 7.575 9.3 7.69167 9.3 7.825C9.3 7.95833 9.35 8.075 9.45 8.175L11.425 10.125C11.575 10.2583 11.75 10.3293 11.95 10.338C12.15 10.3467 12.325 10.2757 12.475 10.125C12.625 9.975 12.7 9.8 12.7 9.6C12.7 9.4 12.625 9.225 12.475 9.075L11.9 8.5C12.35 8.5 12.8083 8.58767 13.275 8.763C13.7417 8.93833 14.1417 9.19233 14.475 9.525C14.8083 9.85833 15.0627 10.2417 15.238 10.675C15.4133 11.1083 15.5007 11.5417 15.5 11.975C15.5 12.175 15.4873 12.375 15.462 12.575C15.4367 12.775 15.3827 12.9667 15.3 13.15C15.2167 13.3833 15.2123 13.5957 15.287 13.787C15.3617 13.9783 15.4993 14.116 15.7 14.2ZM11.525 18.475C11.675 18.625 11.85 18.7 12.05 18.7C12.25 18.7 12.425 18.625 12.575 18.475L14.55 16.525C14.65 16.425 14.7 16.3083 14.7 16.175C14.7 16.0417 14.65 15.925 14.55 15.825L12.575 13.875C12.425 13.7417 12.25 13.6707 12.05 13.662C11.85 13.6533 11.675 13.7243 11.525 13.875C11.375 14.025 11.3 14.2 11.3 14.4C11.3 14.6 11.375 14.775 11.525 14.925L12.075 15.475C11.6083 15.4917 11.1543 15.4167 10.713 15.25C10.2717 15.0833 9.87567 14.825 9.525 14.475C9.19167 14.1417 8.93733 13.7583 8.762 13.325C8.58667 12.8917 8.49933 12.4583 8.5 12.025C8.5 11.8083 8.51267 11.604 8.538 11.412C8.56333 11.22 8.61733 11.0243 8.7 10.825C8.76667 10.6417 8.775 10.4627 8.725 10.288C8.675 10.1133 8.575 9.97567 8.425 9.875C8.225 9.74167 8.01233 9.70833 7.787 9.775C7.56167 9.84167 7.40767 9.975 7.325 10.175C7.19167 10.475 7.104 10.771 7.062 11.063C7.02 11.355 6.99933 11.6673 7 12C7 12.6333 7.125 13.2583 7.375 13.875C7.625 14.4917 7.99167 15.0417 8.475 15.525C8.95833 16.0083 9.5 16.371 10.1 16.613C10.7 16.855 11.3167 16.984 11.95 17L11.525 17.425C11.375 17.575 11.3 17.75 11.3 17.95C11.3 18.15 11.375 18.325 11.525 18.475ZM12 22C10.6167 22 9.31667 21.7373 8.1 21.212C6.88333 20.6867 5.825 19.9743 4.925 19.075C4.025 18.175 3.31267 17.1167 2.788 15.9C2.26333 14.6833 2.00067 13.3833 2 12C2 10.6167 2.26267 9.31667 2.788 8.1C3.31333 6.88333 4.02567 5.825 4.925 4.925C5.825 4.025 6.88333 3.31267 8.1 2.788C9.31667 2.26333 10.6167 2.00067 12 2C13.3833 2 14.6833 2.26267 15.9 2.788C17.1167 3.31333 18.175 4.02567 19.075 4.925C19.975 5.825 20.6877 6.88333 21.213 8.1C21.7383 9.31667 22.0007 10.6167 22 12C22 13.3833 21.7373 14.6833 21.212 15.9C20.6867 17.1167 19.9743 18.175 19.075 19.075C18.175 19.975 17.1167 20.6877 15.9 21.213C14.6833 21.7383 13.3833 22.0007 12 22ZM12 20C14.2167 20 16.1043 19.221 17.663 17.663C19.2217 16.105 20.0007 14.2173 20 12C20 9.78333 19.221 7.89567 17.663 6.337C16.105 4.77833 14.2173 3.99933 12 4C9.78333 4 7.89567 4.779 6.337 6.337C4.77833 7.895 3.99933 9.78267 4 12C4 14.2167 4.779 16.1043 6.337 17.663C7.895 19.2217 9.78267 20.0007 12 20Z" fill="currentColor"/>
</svg>
