<svg width="0" height="0" viewBox="0 0 24 24" fill="none" xmlns="http://www.w3.org/2000/svg">
<circle cx="12" cy="12" r="10" fill="currentColor"/>
<path d="M12.8577 12.001L15.9053 8.9534C16.0006 8.85817 16.0958 8.66769 16.0958 8.47721C16.0958 8.28674 16.0006 8.1915 15.9053 8.00102C15.8101 7.90578 15.6196 7.81055 15.4291 7.81055C15.2387 7.81055 15.1434 7.90578 14.9529 8.00102L11.9053 11.0486L8.8577 8.00102C8.76246 7.90578 8.57199 7.81055 8.38151 7.81055C8.19103 7.81055 8.0958 7.90578 7.90532 8.00102C7.81008 8.09626 7.71484 8.28674 7.71484 8.47721C7.71484 8.66769 7.81008 8.76293 7.90532 8.9534L10.9529 12.001L7.90532 15.0486C7.81008 15.1439 7.71484 15.3344 7.71484 15.5248C7.71484 15.7153 7.81008 15.8105 7.90532 16.001C8.00056 16.0963 8.19103 16.1915 8.38151 16.1915C8.57199 16.1915 8.66722 16.0963 8.8577 16.001L11.9053 12.9534L14.9529 16.001C15.0482 16.0963 15.2387 16.1915 15.4291 16.1915C15.6196 16.1915 15.7148 16.0963 15.9053 16.001C16.0958 15.9058 16.0958 15.7153 16.0958 15.5248C16.0958 15.3344 16.0006 15.2391 15.9053 15.0486L12.8577 12.001Z" fill="white"/>
</svg>
