<svg width="0" height="0" viewBox="0 0 48 48" fill="currentColor" xmlns="http://www.w3.org/2000/svg">
<path d="M37.9342 14.6964L34.2199 6.51471C34.1511 6.36269 34.0321 6.23236 33.8783 6.14059C33.7245 6.04883 33.543 5.99985 33.3573 6H16.6428C16.4571 5.99984 16.2756 6.0488 16.1219 6.14054C15.9681 6.23227 15.8491 6.36256 15.7803 6.51455L12.066 14.6962C12.0007 14.8402 11.9834 14.9977 12.0161 15.1501L17.5876 41.3318C17.6269 41.5197 17.7398 41.6894 17.9065 41.8115C18.0732 41.9336 18.2832 42.0003 18.5 42H31.5001C31.7168 42.0002 31.9268 41.9335 32.0935 41.8115C32.2601 41.6894 32.373 41.5198 32.4124 41.332L37.9838 15.1502C38.0166 14.9979 37.9994 14.8404 37.9342 14.6964ZM29.643 19.091H25.9286V26.4545C25.9286 26.6715 25.8308 26.8796 25.6567 27.033C25.4825 27.1865 25.2463 27.2727 25.0001 27.2727C24.7538 27.2727 24.5176 27.1865 24.3435 27.033C24.1693 26.8796 24.0715 26.6715 24.0715 26.4545V19.091H20.3572C20.1109 19.091 19.8747 19.0048 19.7006 18.8514C19.5264 18.6979 19.4286 18.4898 19.4286 18.2728C19.4286 18.0558 19.5264 17.8477 19.7006 17.6943C19.8747 17.5409 20.1109 17.4547 20.3572 17.4547H24.0715V13.3638C24.0715 13.1468 24.1693 12.9387 24.3435 12.7853C24.5176 12.6319 24.7538 12.5457 25.0001 12.5457C25.2463 12.5457 25.4825 12.6319 25.6567 12.7853C25.8308 12.9387 25.9286 13.1468 25.9286 13.3638V17.4547H29.643C29.8892 17.4547 30.1254 17.5409 30.2996 17.6943C30.4737 17.8477 30.5715 18.0558 30.5715 18.2728C30.5715 18.4898 30.4737 18.6979 30.2996 18.8514C30.1254 19.0048 29.8892 19.091 29.643 19.091Z" fill="currentColor"/>
</svg>
