<svg width="0" height="0" viewBox="0 0 20 20" fill="none" xmlns="http://www.w3.org/2000/svg">
    <path
        d="M14.1667 1.66669H5.83342C3.53341 1.66669 1.66675 3.52502 1.66675 5.81669V10.8V11.6334C1.66675 13.925 3.53341 15.7834 5.83342 15.7834H7.08342C7.30841 15.7834 7.60842 15.9334 7.75008 16.1167L9.00008 17.775C9.55008 18.5084 10.4501 18.5084 11.0001 17.775L12.2501 16.1167C12.4084 15.9084 12.6584 15.7834 12.9167 15.7834H14.1667C16.4667 15.7834 18.3334 13.925 18.3334 11.6334V5.81669C18.3334 3.52502 16.4667 1.66669 14.1667 1.66669ZM6.66675 10C6.20008 10 5.83342 9.62502 5.83342 9.16669C5.83342 8.70835 6.20842 8.33335 6.66675 8.33335C7.12508 8.33335 7.50008 8.70835 7.50008 9.16669C7.50008 9.62502 7.13341 10 6.66675 10ZM10.0001 10C9.53342 10 9.16675 9.62502 9.16675 9.16669C9.16675 8.70835 9.54175 8.33335 10.0001 8.33335C10.4584 8.33335 10.8334 8.70835 10.8334 9.16669C10.8334 9.62502 10.4667 10 10.0001 10ZM13.3334 10C12.8667 10 12.5001 9.62502 12.5001 9.16669C12.5001 8.70835 12.8751 8.33335 13.3334 8.33335C13.7917 8.33335 14.1667 8.70835 14.1667 9.16669C14.1667 9.62502 13.8001 10 13.3334 10Z"
        fill="currentColor" />
</svg>