<svg width="0" height="0" viewBox="0 0 24 24" fill="none" xmlns="http://www.w3.org/2000/svg">
<path d="M19.0703 14.2396C18.7803 14.5296 18.3203 14.5296 18.0403 14.2396C17.7503 13.9496 17.7503 13.4896 18.0403 13.2096C20.0403 11.2096 20.0403 7.95961 18.0403 5.96961C16.0403 3.97961 12.7903 3.96961 10.8003 5.96961C8.81027 7.96961 8.80027 11.2196 10.8003 13.2096C11.0903 13.4996 11.0903 13.9596 10.8003 14.2396C10.5103 14.5296 10.0503 14.5296 9.77027 14.2396C7.20027 11.6696 7.20027 7.48961 9.77027 4.92961C12.3403 2.36961 16.5203 2.35961 19.0803 4.92961C21.6403 7.49961 21.6403 11.6696 19.0703 14.2396Z" fill="currentColor"/>
<path d="M4.92973 9.76047C5.21973 9.47047 5.67973 9.47047 5.95973 9.76047C6.24973 10.0505 6.24973 10.5105 5.95973 10.7905C3.95973 12.7905 3.95973 16.0405 5.95973 18.0305C7.95973 20.0205 11.2097 20.0305 13.1997 18.0305C15.1897 16.0305 15.1997 12.7805 13.1997 10.7905C12.9097 10.5005 12.9097 10.0405 13.1997 9.76047C13.4897 9.47047 13.9497 9.47047 14.2297 9.76047C16.7997 12.3305 16.7997 16.5105 14.2297 19.0705C11.6597 21.6305 7.47973 21.6405 4.91973 19.0705C2.35973 16.5005 2.35973 12.3305 4.92973 9.76047Z" fill="currentColor"/>
</svg>
