<svg width="0" height="0" viewBox="0 0 48 48" fill="currentColor" xmlns="http://www.w3.org/2000/svg">
<path d="M35.9107 14.4819C38.4962 14.8643 40.0675 16.7444 40.0675 18.8878C40.0675 21.1133 38.5639 23.1498 35.3474 23.2928C34.4032 25.1796 33.1461 25.7255 31.9059 25.7255C30.9184 25.7255 29.942 25.3828 29.1421 25.1016C28.9643 25.0396 28.7905 24.9799 28.6167 24.9224C29.033 24.492 29.4233 24.0129 29.7798 23.4951C31.7548 24.1867 32.864 24.4363 33.8198 22.4835C34.3403 21.0665 34.6322 19.5148 34.6322 17.8838C34.6322 11.2494 29.8845 5.65504 24.0277 5.65504C18.1709 5.65504 13.4232 11.2489 13.4232 17.8838C13.4232 19.8383 13.8176 21.6373 14.5484 23.2683C14.5484 23.2683 13.9393 23.3271 13.4085 23.295C9.71699 23.4292 8 21.2661 8 18.8878C8 16.7488 9.56637 14.8719 12.143 14.4846C13.4816 8.46024 18.2939 4 24.0273 4C29.7602 4 34.5716 8.4589 35.9107 14.4819Z" fill="currentColor"/>
<path d="M35.1207 31.8439C36.4073 33.1807 37.0975 34.1263 38.044 36.0033C38.5191 36.9445 39.5088 39.6895 38.8938 40.8704C38.1171 42.3655 36.2263 42.9835 31.0295 43.619C27.9164 44 24.0283 44 24.0283 44C24.0283 44 20.1407 44 17.028 43.619C11.8303 42.9835 9.93993 42.365 9.16276 40.8704C8.54869 39.6895 9.53797 36.9445 10.013 36.0033C10.96 34.1263 11.6498 33.1807 12.9358 31.8439C14.0472 30.6884 17.3636 29.061 19.5043 29.7766C20.155 29.9191 20.5695 30.1501 20.9847 30.3814C21.6591 30.7572 22.3353 31.134 24.0283 31.134C25.7213 31.134 26.3975 30.7572 27.0719 30.3814C27.4871 30.1501 27.9016 29.9191 28.5523 29.7766C30.693 29.061 34.0098 30.6884 35.1207 31.8439Z" fill="currentColor"/>
<path d="M27.5882 24.5601C27.1573 24.9545 26.5477 25.1176 25.9683 24.9238L22.7496 23.8445C21.89 23.5566 21.4346 22.6021 21.7327 21.7139C22.0308 20.8249 22.9689 20.3383 23.8285 20.6271L27.0476 21.7064C27.6065 21.8935 27.9892 22.3645 28.1109 22.914L29.7735 23.5036C29.7349 23.5597 29.6958 23.6154 29.6564 23.6706C30.9802 21.8209 31.8626 19.4486 31.8626 17.0447C31.8626 11.8875 28.3555 8.54578 24.0285 8.54578C19.7015 8.54578 16.1936 11.8875 16.1936 17.0447C16.1936 22.2019 20.1267 27.2227 24.0285 27.2227C25.6159 27.2227 27.2504 26.3346 28.6149 24.9246L27.5882 24.5601Z" fill="currentColor"/>
</svg>
