<svg width="0" height="0" viewBox="0 0 24 24" fill="currentColor" xmlns="http://www.w3.org/2000/svg">
<g clip-path="url(#clip0_13450_84613)">
<path d="M12 0.75C5.78681 0.75 0.75 5.78681 0.75 12C0.75 18.2132 5.78681 23.25 12 23.25C18.2132 23.25 23.25 18.2132 23.25 12C23.25 5.78681 18.2132 0.75 12 0.75ZM18.8943 18.8943C17.1848 20.5987 14.9019 21.6056 12.4906 21.7188C10.0792 21.832 7.7121 21.0434 5.85044 19.5066C3.98877 17.9698 2.76594 15.795 2.4202 13.4059C2.07446 11.0168 2.63058 8.5845 3.98021 6.58302C5.32984 4.58153 7.37629 3.15421 9.72081 2.57917C12.0653 2.00412 14.54 2.32255 16.6625 3.4724C18.7851 4.62226 20.4035 6.52117 21.2025 8.79912C22.0014 11.0771 21.9237 13.5709 20.9844 15.7947C20.4948 16.9534 19.785 18.0061 18.8943 18.8943Z" fill="currentColor"/>
<path d="M7.87523 15.0002H16.1252V16.5002H7.87523V15.0002ZM9.87352 10.6897L8.74655 9.68794L9.74827 8.56102L8.6272 7.56445L7.62544 8.69142L6.49852 7.6897L5.50195 8.81077L6.62892 9.81253L5.6272 10.9395L6.74827 11.936L7.75003 10.809L8.87695 11.8108L9.87352 10.6897ZM17.9983 8.56102L16.8772 7.56445L15.8754 8.69142L14.7485 7.6897L13.752 8.81077L14.8789 9.81253L13.8772 10.9395L14.9983 11.936L16 10.809L17.127 11.8108L18.1235 10.6897L16.9965 9.68794L17.9983 8.56102Z" fill="currentColor"/>
</g>
<defs>
<clipPath id="clip0_13450_84613">
<rect width="24" height="24" fill="white"/>
</clipPath>
</defs>
</svg>
