<svg width="0" height="0" viewBox="0 0 20 20" fill="none" xmlns="http://www.w3.org/2000/svg">
    <path
        d="M17.3727 6.46957C17.8 7.01421 17.3287 7.70835 16.6364 7.70835H2.6665C2.11422 7.70835 1.6665 7.26064 1.6665 6.70835V5.35002C1.6665 3.31669 3.3165 1.66669 5.34984 1.66669H7.28317C8.6415 1.66669 9.0665 2.10835 9.60817 2.83335L10.7748 4.38335C11.0332 4.72502 11.0665 4.76669 11.5498 4.76669H13.8748C15.2937 4.76669 16.5586 5.4322 17.3727 6.46957Z"
        fill="currentColor" />
    <path
        d="M17.3199 8.95814C17.8708 8.95814 18.318 9.40379 18.3199 9.95475L18.3332 13.875C18.3332 16.3334 16.3332 18.3334 13.8748 18.3334H6.12484C3.6665 18.3334 1.6665 16.3334 1.6665 13.875V9.95834C1.6665 9.40606 2.11421 8.95835 2.66649 8.95834L17.3199 8.95814Z"
        fill="currentColor" />
</svg>