<svg width="0" height="0" viewBox="0 0 12 12" fill="none" xmlns="http://www.w3.org/2000/svg">
<path d="M3.01875 5.23125C2.9251 5.13677 2.87281 5.00895 2.8734 4.87592C2.87398 4.74288 2.92739 4.61553 3.02187 4.52187C3.11636 4.42822 3.24418 4.37594 3.37721 4.37652C3.51024 4.37711 3.6376 4.43052 3.73125 4.525L5.5 6.29375V0.5C5.5 0.367392 5.55268 0.240215 5.64645 0.146447C5.74021 0.0526785 5.86739 0 6 0C6.13261 0 6.25979 0.0526785 6.35355 0.146447C6.44732 0.240215 6.5 0.367392 6.5 0.5V6.29375L8.26875 4.525C8.31512 4.47822 8.37026 4.44103 8.431 4.41555C8.49175 4.39007 8.55692 4.37681 8.62279 4.37652C8.68866 4.37623 8.75395 4.38892 8.81491 4.41386C8.87588 4.4388 8.93134 4.4755 8.97812 4.52187C9.02491 4.56825 9.0621 4.62338 9.08758 4.68413C9.11305 4.74487 9.12631 4.81004 9.1266 4.87592C9.12689 4.94179 9.11421 5.00707 9.08927 5.06804C9.06433 5.12901 9.02762 5.18447 8.98125 5.23125L6.35625 7.85625C6.26068 7.94866 6.13294 8.00032 6 8.00032C5.86706 8.00032 5.73932 7.94866 5.64375 7.85625L3.01875 5.23125ZM11.5 7C11.3674 7 11.2402 7.05268 11.1464 7.14645C11.0527 7.24021 11 7.36739 11 7.5V11H1V7.5C1 7.36739 0.947321 7.24021 0.853553 7.14645C0.759785 7.05268 0.632608 7 0.5 7C0.367392 7 0.240215 7.05268 0.146447 7.14645C0.0526785 7.24021 0 7.36739 0 7.5V11C0 11.2652 0.105357 11.5196 0.292893 11.7071C0.48043 11.8946 0.734784 12 1 12H11C11.2652 12 11.5196 11.8946 11.7071 11.7071C11.8946 11.5196 12 11.2652 12 11V7.5C12 7.36739 11.9473 7.24021 11.8536 7.14645C11.7598 7.05268 11.6326 7 11.5 7Z" fill="currentColor"/>
</svg>
