<svg width="0" height="0" viewBox="0 0 180 187" fill="none" xmlns="http://www.w3.org/2000/svg">
<path d="M158.142 68.878C161.35 68.878 163.951 66.2741 163.951 63.0621C163.951 59.85 161.35 57.2461 158.142 57.2461C154.933 57.2461 152.332 59.85 152.332 63.0621C152.332 66.2741 154.933 68.878 158.142 68.878Z" fill="#EAEEF9"/>
<path d="M3.82204 100.329C5.93289 100.329 7.64408 98.6163 7.64408 96.5031C7.64408 94.3898 5.93289 92.6768 3.82204 92.6768C1.71119 92.6768 0 94.3898 0 96.5031C0 98.6163 1.71119 100.329 3.82204 100.329Z" fill="#EAEEF9"/>
<path d="M21.3914 169.119C23.5022 169.119 25.2134 167.406 25.2134 165.293C25.2134 163.18 23.5022 161.467 21.3914 161.467C19.2805 161.467 17.5693 163.18 17.5693 165.293C17.5693 167.406 19.2805 169.119 21.3914 169.119Z" fill="#EAEEF9"/>
<path d="M41.8213 169.119L95.4552 152.31V83.3906L41.8213 100.071V169.119Z" fill="#B7BFCD"/>
<path opacity="0.4" d="M149.089 169.119L95.4556 152.31V83.3906L149.089 100.071V169.119Z" fill="#6D7C9A"/>
<g opacity="0.13">
<path d="M41.8213 169.119L95.4552 152.31V83.3906L41.8213 100.071V169.119Z" fill="url(#paint0_linear_12468_108483)"/>
<path d="M149.089 169.119L95.4552 152.31V83.3906L149.089 100.071V169.119Z" fill="url(#paint1_linear_12468_108483)"/>
</g>
<path d="M95.4552 186.058L41.8213 169.249V100.33L95.4552 117.14V186.058Z" fill="#EDF1F9"/>
<path d="M95.4556 186.058L149.089 169.249V100.33L95.4556 117.14V186.058Z" fill="#DAE1ED"/>
<path opacity="0.09" d="M83.3033 173.904L41.8213 169.249V100.33L95.4552 117.14L83.3033 173.904Z" fill="url(#paint2_linear_12468_108483)"/>
<path opacity="0.2" d="M107.607 161.749L149.089 169.249V100.33L95.4556 117.14L107.607 161.749Z" fill="url(#paint3_linear_12468_108483)"/>
<path d="M95.4553 83.391L70.2384 64.5127L15.7085 82.8738L41.8214 100.071L95.4553 83.391Z" fill="#DAE1ED"/>
<path d="M95.4556 83.391L120.672 64.5127L175.202 82.8738L149.089 100.071L95.4556 83.391Z" fill="#DAE1ED"/>
<path d="M41.8214 100.33L95.4553 117.14L68.7024 134.208L15.7085 116.622L41.8214 100.33Z" fill="#EFF4FD"/>
<path d="M149.089 100.33L95.4556 117.14L122.209 134.208L175.202 116.622L149.089 100.33Z" fill="#EDF1F9"/>
<path d="M110.42 17.2261C117.934 37.6222 120.173 42.154 120.908 62.2514C120.626 66.839 120.45 71.8275 118.288 75.8444C115.4 81.9892 108.337 86.2448 101.663 86.3137C94.7887 86.4366 88.0488 82.2263 85.0151 75.7341C82.8808 71.7941 82.9487 66.4046 85.8764 62.8273C89.0591 59.3965 94.6585 58.541 98.6863 60.6847C103.117 62.7205 105.762 66.9536 106.741 71.4179C107.721 75.8822 107.29 80.7242 106.095 85.1266C103.594 95.834 101.523 96.352 95.3903 114.48" stroke="#ABB5CC" stroke-width="2" stroke-miterlimit="10" stroke-dasharray="4 4"/>
<path d="M119.565 6.43072C119.547 9.42981 116.757 11.2662 113.218 10.3086C109.493 9.67334 106.856 9.01864 106.686 6.3419C106.771 3.59681 109.766 2.52242 113.271 1.3113C117.473 -0.358919 119.327 3.49998 119.565 6.43072Z" fill="#DAE2EB"/>
<path d="M95.4899 15.6017C97.3781 17.5459 101.359 18.1128 103.299 15.1431C105.426 11.8511 107.247 9.45782 105.29 7.25965C103.402 5.31547 101.565 6.6244 97.3624 8.29462C93.9936 10.0137 93.2786 13.4719 95.4899 15.6017Z" fill="#DAE2EB"/>
<path d="M104.202 3.19605C105.921 2.46349 107.979 3.00093 108.898 4.3882C109.289 4.82783 109.748 5.52147 109.884 6.02947C111.347 9.44874 110.887 12.8386 108.913 13.6395C106.752 14.7628 103.776 12.8381 102.636 9.60444C102.364 8.58844 102.228 8.08044 102.024 7.31844C101.803 5.47207 102.484 3.92861 104.202 3.19605C104.457 3.12769 104.202 3.19605 104.202 3.19605Z" fill="#989FB0"/>
<path d="M25.2132 58.2375H21.8866V54.9102H19.0351V58.2375H15.7085V61.1846H19.0351V64.512H21.8866V61.1846H25.2132V58.2375Z" fill="url(#paint4_linear_12468_108483)"/>
<path d="M32.5203 141.72H29.1937V138.393H26.3423V141.72H23.0156V144.667H26.3423V147.994H29.1937V144.667H32.5203V141.72Z" fill="url(#paint5_linear_12468_108483)"/>
<path d="M177.945 141.909L173.875 139.853L175.93 135.782L172.441 134.02L170.386 138.091L166.316 136.036L164.495 139.642L168.566 141.697L166.511 145.768L169.999 147.53L172.054 143.459L176.125 145.514L177.945 141.909Z" fill="url(#paint6_linear_12468_108483)"/>
<defs>
<linearGradient id="paint0_linear_12468_108483" x1="78.5242" y1="88.3821" x2="71.2057" y2="118.843" gradientUnits="userSpaceOnUse">
<stop offset="0.00289017" stop-color="#606673" stop-opacity="0"/>
<stop offset="1" stop-color="#373C47"/>
</linearGradient>
<linearGradient id="paint1_linear_12468_108483" x1="78.5242" y1="88.3821" x2="71.2057" y2="118.843" gradientUnits="userSpaceOnUse">
<stop offset="0.00289017" stop-color="#606673" stop-opacity="0"/>
<stop offset="1" stop-color="#373C47"/>
</linearGradient>
<linearGradient id="paint2_linear_12468_108483" x1="53.8457" y1="147.498" x2="66.7356" y2="111.1" gradientUnits="userSpaceOnUse">
<stop offset="0.00289017" stop-color="#6C80AA" stop-opacity="0"/>
<stop offset="1" stop-color="#5D6A86"/>
</linearGradient>
<linearGradient id="paint3_linear_12468_108483" x1="124.401" y1="157.441" x2="125.415" y2="111.25" gradientUnits="userSpaceOnUse">
<stop offset="0.00289017" stop-color="#314F91" stop-opacity="0"/>
<stop offset="1" stop-color="#324264"/>
</linearGradient>
<linearGradient id="paint4_linear_12468_108483" x1="20.4616" y1="55.2437" x2="20.4616" y2="60.6331" gradientUnits="userSpaceOnUse">
<stop stop-color="#B0BACC"/>
<stop offset="1" stop-color="#969EAE"/>
</linearGradient>
<linearGradient id="paint5_linear_12468_108483" x1="27.7687" y1="138.726" x2="27.7687" y2="144.116" gradientUnits="userSpaceOnUse">
<stop stop-color="#B0BACC"/>
<stop offset="1" stop-color="#969EAE"/>
</linearGradient>
<linearGradient id="paint6_linear_12468_108483" x1="173.98" y1="135.31" x2="170.65" y2="141.903" gradientUnits="userSpaceOnUse">
<stop stop-color="#B0BACC"/>
<stop offset="1" stop-color="#969EAE"/>
</linearGradient>
</defs>
</svg>
