<svg width="0" height="0" viewBox="0 0 177 176" fill="none" xmlns="http://www.w3.org/2000/svg">
<path d="M87.9222 138.352C115.935 138.352 138.645 115.646 138.645 87.5377C138.645 59.4297 115.835 36.7231 87.9222 36.7231C59.9095 36.7231 37.1992 59.4297 37.1992 87.5377C37.1992 115.646 59.9095 138.352 87.9222 138.352Z" fill="#EAEEF9"/>
<path d="M135.343 54.2282C137.608 54.2282 139.445 52.3921 139.445 50.1271C139.445 47.862 137.608 46.0259 135.343 46.0259C133.078 46.0259 131.241 47.862 131.241 50.1271C131.241 52.3921 133.078 54.2282 135.343 54.2282Z" fill="#E7EBF6"/>
<path d="M141.346 38.2236C142.893 38.2236 144.147 36.9696 144.147 35.4228C144.147 33.8759 142.893 32.6219 141.346 32.6219C139.799 32.6219 138.545 33.8759 138.545 35.4228C138.545 36.9696 139.799 38.2236 141.346 38.2236Z" fill="#E7EBF6"/>
<path d="M39.8999 54.1281C41.447 54.1281 42.7012 52.8741 42.7012 51.3273C42.7012 49.7805 41.447 48.5265 39.8999 48.5265C38.3528 48.5265 37.0986 49.7805 37.0986 51.3273C37.0986 52.8741 38.3528 54.1281 39.8999 54.1281Z" fill="#E7EBF6"/>
<path d="M22.7922 108.144C25.6654 108.144 27.9946 105.815 27.9946 102.942C27.9946 100.069 25.6654 97.7406 22.7922 97.7406C19.919 97.7406 17.5898 100.069 17.5898 102.942C17.5898 105.815 19.919 108.144 22.7922 108.144Z" fill="#E7EBF6"/>
<g filter="url(#filter0_d_17123_167669)">
<path d="M122.17 127.191L54.5031 127.676C50.5973 127.693 47.4124 124.545 47.3601 120.666L46.8357 55.9361C46.8138 52.0303 49.9584 48.8489 53.838 48.801L121.505 48.3156C125.411 48.2981 128.595 51.4463 128.648 55.3259L129.172 120.055C129.194 123.961 126.049 127.143 122.17 127.191Z" fill="url(#paint0_linear_17123_167669)"/>
</g>
<path d="M118.359 117.526L58.8748 117.976C57.1922 117.991 55.8379 116.663 55.821 114.981L55.3698 61.4846C55.3529 59.802 56.6794 58.4491 58.3621 58.4342L117.847 57.9841C119.529 57.9691 120.884 59.2972 120.9 60.9798L121.352 114.476C121.369 116.158 120.042 117.511 118.359 117.526Z" fill="#EAEEF9"/>
<path d="M89.5926 97.449L67.8929 97.5997L78.6498 85.2205L89.5926 97.449Z" fill="#B0B7C4"/>
<path d="M107.586 97.3023L76.3053 97.5247L91.7973 79.748L107.586 97.3023Z" fill="#CED6E2"/>
<path d="M78.6289 79.7761C80.3446 78.3007 80.5379 75.7126 79.0606 73.9952C77.5834 72.2779 74.995 72.0817 73.2793 73.5571C71.5637 75.0324 71.3704 77.6206 72.8477 79.3379C74.3249 81.0552 76.9133 81.2514 78.6289 79.7761Z" fill="#B0B7C4"/>
<defs>
<filter id="filter0_d_17123_167669" x="24.8359" y="37.3156" width="126.336" height="123.361" filterUnits="userSpaceOnUse" color-interpolation-filters="sRGB">
<feFlood flood-opacity="0" result="BackgroundImageFix"/>
<feColorMatrix in="SourceAlpha" type="matrix" values="0 0 0 0 0 0 0 0 0 0 0 0 0 0 0 0 0 0 127 0" result="hardAlpha"/>
<feOffset dy="11"/>
<feGaussianBlur stdDeviation="11"/>
<feColorMatrix type="matrix" values="0 0 0 0 0.397708 0 0 0 0 0.47749 0 0 0 0 0.575 0 0 0 0.27 0"/>
<feBlend mode="normal" in2="BackgroundImageFix" result="effect1_dropShadow_17123_167669"/>
<feBlend mode="normal" in="SourceGraphic" in2="effect1_dropShadow_17123_167669" result="shape"/>
</filter>
<linearGradient id="paint0_linear_17123_167669" x1="51.3735" y1="45.4662" x2="123.703" y2="129.578" gradientUnits="userSpaceOnUse">
<stop stop-color="#FDFEFF"/>
<stop offset="0.9964" stop-color="#ECF0F5"/>
</linearGradient>
</defs>
</svg>
