<svg width="0" height="0" viewBox="0 0 60 60" fill="none" xmlns="http://www.w3.org/2000/svg">
<path d="M35 5H15C13.6739 5 12.4021 5.52678 11.4645 6.46447C10.5268 7.40215 10 8.67392 10 10V50C10 51.3261 10.5268 52.5979 11.4645 53.5355C12.4021 54.4732 13.6739 55 15 55H45C46.3261 55 47.5979 54.4732 48.5355 53.5355C49.4732 52.5979 50 51.3261 50 50V20L35 5ZM39.5 50H35L30 41.5L25 50H20.5L27.75 38.75L20.5 27.5H25L30 36L35 27.5H39.5L32.25 38.75L39.5 50ZM32.5 22.5V8.75L46.25 22.5H32.5Z" fill="#00C48C"/>
</svg>
