<svg width="0" height="0" viewBox="0 0 24 24" fill="currentColor" xmlns="http://www.w3.org/2000/svg">
<path d="M7.33333 3H13.75V4.125H7.33333C6.689 4.125 6.16667 4.62868 6.16667 5.25V18.75C6.16667 19.3713 6.689 19.875 7.33333 19.875H16.6667C17.311 19.875 17.8333 19.3713 17.8333 18.75V8.0625H19V18.75C19 19.9926 17.9553 21 16.6667 21H7.33333C6.04467 21 5 19.9926 5 18.75V5.25C5 4.00736 6.04467 3 7.33333 3Z" fill="currentColor"/>
<path d="M13.75 6.375V3L19 8.0625H15.5C14.5335 8.0625 13.75 7.30698 13.75 6.375Z" fill="currentColor"/>
<path fill-rule="evenodd" clip-rule="evenodd" d="M9 15.5C9 15.2239 9.22386 15 9.5 15H11.5C11.7761 15 12 15.2239 12 15.5C12 15.7761 11.7761 16 11.5 16H9.5C9.22386 16 9 15.7761 9 15.5Z" fill="currentColor"/>
<path fill-rule="evenodd" clip-rule="evenodd" d="M9 13.5C9 13.2239 9.22386 13 9.5 13H14.5C14.7761 13 15 13.2239 15 13.5C15 13.7761 14.7761 14 14.5 14H9.5C9.22386 14 9 13.7761 9 13.5Z" fill="currentColor"/>
<path fill-rule="evenodd" clip-rule="evenodd" d="M9 11.5C9 11.2239 9.22386 11 9.5 11H14.5C14.7761 11 15 11.2239 15 11.5C15 11.7761 14.7761 12 14.5 12H9.5C9.22386 12 9 11.7761 9 11.5Z" fill="currentColor"/>
</svg>
