<svg width="0" height="0" viewBox="0 0 15 20" fill="none" xmlns="http://www.w3.org/2000/svg">
    <path
        d="M2.10433 0.833328C1.63468 0.833328 1.18426 1.02573 0.852161 1.3682C0.520065 1.71068 0.333496 2.17517 0.333496 2.6595V18.4863C0.333496 18.9707 0.520065 19.4351 0.852161 19.7776C1.18426 20.1201 1.63468 20.3125 2.10433 20.3125H12.7293C13.199 20.3125 13.6494 20.1201 13.9815 19.7776C14.3136 19.4351 14.5002 18.9707 14.5002 18.4863V2.6595C14.5002 2.17517 14.3136 1.71068 13.9815 1.3682C13.6494 1.02573 13.199 0.833328 12.7293 0.833328H2.10433ZM10.4745 6.91083L10.3682 6.92057H4.46544C4.31793 6.92085 4.17567 6.86416 4.06667 6.76168C3.95766 6.6592 3.88982 6.51834 3.87649 6.36685C3.86316 6.21535 3.90532 6.0642 3.99466 5.94316C4.084 5.82212 4.21404 5.73996 4.35919 5.71286L4.46544 5.70312H10.3682C10.5157 5.70284 10.658 5.75952 10.767 5.86201C10.876 5.96449 10.9438 6.10535 10.9572 6.25684C10.9705 6.40833 10.9283 6.55948 10.839 6.68053C10.7497 6.80157 10.6196 6.88373 10.4745 6.91083ZM10.4745 11.1719L10.3682 11.1816H4.46544C4.31793 11.1819 4.17567 11.1252 4.06667 11.0227C3.95766 10.9203 3.88982 10.7794 3.87649 10.6279C3.86316 10.4764 3.90532 10.3253 3.99466 10.2042C4.084 10.0832 4.21404 10.001 4.35919 9.97393L4.46544 9.96419H10.3682C10.5157 9.96391 10.658 10.0206 10.767 10.1231C10.876 10.2256 10.9438 10.3664 10.9572 10.5179C10.9705 10.6694 10.9283 10.8206 10.839 10.9416C10.7497 11.0626 10.6196 11.1448 10.4745 11.1719ZM10.4745 15.433L10.3682 15.4427H4.46544C4.31793 15.443 4.17567 15.3863 4.06667 15.2838C3.95766 15.1813 3.88982 15.0405 3.87649 14.889C3.86316 14.7375 3.90532 14.5863 3.99466 14.4653C4.084 14.3443 4.21404 14.2621 4.35919 14.235L4.46544 14.2253H10.3682C10.5157 14.225 10.658 14.2817 10.767 14.3841C10.876 14.4866 10.9438 14.6275 10.9572 14.779C10.9705 14.9305 10.9283 15.0816 10.839 15.2027C10.7497 15.3237 10.6196 15.4059 10.4745 15.433Z"
        fill="currentColor" />
</svg>