<svg width="0" height="0" viewBox="0 0 24 24" fill="currentColor" xmlns="http://www.w3.org/2000/svg">
<path fill-rule="evenodd" clip-rule="evenodd" d="M5 3C3.89543 3 3 3.89543 3 5V19C3 20.1046 3.89543 21 5 21H19C20.1046 21 21 20.1046 21 19V5C21 3.89543 20.1046 3 19 3H5ZM5 7.75C5 7.33579 5.33579 7 5.75 7H14.25C14.6642 7 15 7.33579 15 7.75C15 8.16421 14.6642 8.5 14.25 8.5H5.75C5.33579 8.5 5 8.16421 5 7.75ZM15.125 14.175C15.125 13.9403 15.3153 13.75 15.55 13.75H16.45C16.6847 13.75 16.875 13.9403 16.875 14.175C16.875 14.4097 16.6847 14.6 16.45 14.6H15.55C15.3153 14.6 15.125 14.4097 15.125 14.175ZM15.55 13.25C15.0391 13.25 14.625 13.6641 14.625 14.175C14.625 14.5126 14.8058 14.8079 15.0759 14.9694L14.5146 16.5409C14.5049 16.5683 14.5001 16.5967 14.5001 16.625H13.8751C13.8088 16.625 13.7452 16.6513 13.6983 16.6982C13.6514 16.7451 13.6251 16.8087 13.6251 16.875V17.625V18.25C13.6251 18.3163 13.6514 18.3799 13.6983 18.4268C13.7452 18.4736 13.8088 18.5 13.8751 18.5H18.1251C18.1914 18.5 18.255 18.4736 18.3018 18.4268C18.3487 18.3799 18.3751 18.3163 18.3751 18.25V17.625V16.875C18.3751 16.8087 18.3487 16.7451 18.3018 16.6982C18.255 16.6513 18.1914 16.625 18.1251 16.625H17.5001C17.5001 16.5967 17.4953 16.5683 17.4855 16.5409L16.9242 14.9694C17.1942 14.8078 17.375 14.5125 17.375 14.175C17.375 13.6641 16.9609 13.25 16.45 13.25H15.55ZM15.5513 15.125L15.1048 16.375H16.8953L16.4489 15.125H15.5513ZM5.75 12C5.33579 12 5 12.3358 5 12.75C5 13.1642 5.33579 13.5 5.75 13.5H11.25C11.6642 13.5 12 13.1642 12 12.75C12 12.3358 11.6642 12 11.25 12H5.75ZM5 10.25C5 9.83579 5.33579 9.5 5.75 9.5H14.25C14.6642 9.5 15 9.83579 15 10.25C15 10.6642 14.6642 11 14.25 11H5.75C5.33579 11 5 10.6642 5 10.25Z" fill="currentColor"/>
</svg>
