<svg width="0" height="0" viewBox="0 0 13 18" fill="currentColor" xmlns="http://www.w3.org/2000/svg">
<path d="M12.9671 4.34819L11.1099 0.257355C11.0755 0.181344 11.0161 0.11618 10.9392 0.0702968C10.8623 0.0244137 10.7715 -7.52322e-05 10.6786 1.85071e-07H2.32142C2.22856 -7.76559e-05 2.13782 0.0244012 2.06093 0.0702687C1.98404 0.116136 1.92454 0.181281 1.89014 0.257273L0.0329811 4.34811C0.000358487 4.42012 -0.00829043 4.49884 0.00804853 4.57503L2.79379 17.6659C2.81346 17.7598 2.86989 17.8447 2.95324 17.9057C3.0366 17.9668 3.14161 18.0001 3.25 18H9.75006C9.85842 18.0001 9.96339 17.9668 10.0467 17.9057C10.1301 17.8447 10.1865 17.7599 10.2062 17.666L12.9919 4.57511C13.0083 4.49893 12.9997 4.42021 12.9671 4.34819V4.34819ZM8.82148 6.5455H6.96432V10.2273C6.96432 10.3357 6.9154 10.4398 6.82833 10.5165C6.74126 10.5932 6.62316 10.6363 6.50003 10.6363C6.37689 10.6363 6.2588 10.5932 6.17173 10.5165C6.08465 10.4398 6.03574 10.3357 6.03574 10.2273V6.5455H4.17858C4.05544 6.5455 3.93735 6.5024 3.85028 6.42568C3.7632 6.34896 3.71429 6.24491 3.71429 6.13642C3.71429 6.02792 3.7632 5.92387 3.85028 5.84715C3.93735 5.77043 4.05544 5.72733 4.17858 5.72733H6.03574V3.68191C6.03574 3.57342 6.08465 3.46937 6.17173 3.39265C6.2588 3.31593 6.37689 3.27283 6.50003 3.27283C6.62316 3.27283 6.74126 3.31593 6.82833 3.39265C6.9154 3.46937 6.96432 3.57342 6.96432 3.68191V5.72733H8.82148C8.94461 5.72733 9.06271 5.77043 9.14978 5.84715C9.23685 5.92387 9.28577 6.02792 9.28577 6.13642C9.28577 6.24491 9.23685 6.34896 9.14978 6.42568C9.06271 6.5024 8.94461 6.5455 8.82148 6.5455Z" fill="currentColor"/>
</svg>
