<svg width="0" height="0" viewBox="0 0 24 24" fill="currentColor" xmlns="http://www.w3.org/2000/svg">
<path fill-rule="evenodd" clip-rule="evenodd" d="M5.70494 19.9433C4.55487 20.1472 3.52725 19.2427 3.29639 17.7163L2.02372 9.30169C1.76135 7.56696 2.62743 5.68585 3.95816 5.10012L5.24969 4.53164C5.46679 3.91642 5.79558 3.34807 6.21035 2.85251L3.78001 3.92224C1.95025 4.72762 0.759398 7.31415 1.12016 9.6994L2.39282 18.114C2.75358 20.4992 4.52935 21.78 6.3591 20.9746L6.69701 20.8259C6.32383 20.5813 5.98993 20.2839 5.70494 19.9433Z" fill="currentColor"/>
<path d="M16.1256 21.6129H11.3841C7.09313 21.6129 5.25977 19.4965 5.25977 14.5431V9.0697C5.25977 4.11626 7.09313 1.99988 11.3841 1.99988L16.1256 1.99988C20.4166 1.99988 22.25 4.11626 22.25 9.0697V14.5431C22.25 19.4965 20.4166 21.6129 16.1256 21.6129ZM11.3841 3.36823C7.74113 3.36823 6.44513 4.86429 6.44513 9.0697V14.5431C6.44513 18.7485 7.74113 20.2446 11.3841 20.2446H16.1256C19.7686 20.2446 21.0646 18.7485 21.0646 14.5431V9.0697C21.0646 4.86429 19.7686 3.36823 16.1256 3.36823H11.3841Z" fill="currentColor"/>
<path d="M11.2129 10.6486C10.1074 10.6486 9.21289 9.75401 9.21289 8.64856C9.21289 7.54311 10.1074 6.64856 11.2129 6.64856C12.3183 6.64856 13.2129 7.54311 13.2129 8.64856C13.2129 9.75401 12.3183 10.6486 11.2129 10.6486ZM11.2129 7.73947C10.7111 7.73947 10.3038 8.14674 10.3038 8.64856C10.3038 9.15038 10.7111 9.55765 11.2129 9.55765C11.7147 9.55765 12.122 9.15038 12.122 8.64856C12.122 8.14674 11.7147 7.73947 11.2129 7.73947Z" fill="currentColor"/>
<path d="M6.38419 18.8305C6.19454 18.8305 6.00488 18.7211 5.89424 18.5295C5.71249 18.2193 5.78361 17.7906 6.06019 17.5808L9.95609 14.5613C10.8096 13.8953 11.987 13.9774 12.7615 14.7346L13.0222 14.9992C13.4174 15.3914 14.0891 15.3914 14.4763 14.9992L17.7637 11.7425C18.6013 10.9123 19.921 10.9123 20.7666 11.7425L22.0547 13.0196C22.2997 13.2659 22.3313 13.6947 22.1179 13.9866C21.9046 14.2694 21.5331 14.3059 21.2803 14.0595L19.9922 12.7824C19.597 12.3902 18.9253 12.3902 18.5302 12.7824L15.2428 16.0391C14.4052 16.8692 13.0855 16.8692 12.2399 16.0391L11.9791 15.7746C11.6156 15.4188 11.015 15.3823 10.612 15.7016L6.7161 18.7211C6.61336 18.794 6.49483 18.8305 6.38419 18.8305Z" fill="currentColor"/>
</svg>
