<svg width="0" height="0" viewBox="0 0 18 18" fill="none" xmlns="http://www.w3.org/2000/svg">
    <path
        d="M8.99984 0.666687C4.40817 0.666687 0.666504 4.40835 0.666504 9.00002C0.666504 13.5917 4.40817 17.3334 8.99984 17.3334C13.5915 17.3334 17.3332 13.5917 17.3332 9.00002C17.3332 4.40835 13.5915 0.666687 8.99984 0.666687ZM12.6248 11.975C12.5082 12.175 12.2998 12.2834 12.0832 12.2834C11.9748 12.2834 11.8665 12.2584 11.7665 12.1917L9.18317 10.65C8.5415 10.2667 8.0665 9.42502 8.0665 8.68335V5.26669C8.0665 4.92502 8.34984 4.64169 8.6915 4.64169C9.03317 4.64169 9.3165 4.92502 9.3165 5.26669V8.68335C9.3165 8.98335 9.5665 9.42502 9.82484 9.57502L12.4082 11.1167C12.7082 11.2917 12.8082 11.675 12.6248 11.975Z"
        fill="currentColor" />
</svg>