<svg width="24" height="24" viewBox="0 0 24 24" fill="none" xmlns="http://www.w3.org/2000/svg">
<mask id="mask0_9423_24041" style="mask-type:alpha" maskUnits="userSpaceOnUse" x="2" y="2" width="20" height="20">
<path fill-rule="evenodd" clip-rule="evenodd" d="M2 2H21.9596V21.9498H2V2Z" fill="white"/>
</mask>
<g mask="url(#mask0_9423_24041)">
<path fill-rule="evenodd" clip-rule="evenodd" d="M7.65 3.5C5.129 3.5 3.5 5.227 3.5 7.899V16.051C3.5 18.724 5.129 20.45 7.65 20.45H16.3C18.827 20.45 20.46 18.724 20.46 16.051V7.899C20.46 5.227 18.827 3.5 16.3 3.5H7.65ZM16.3 21.95H7.65C4.27 21.95 2 19.579 2 16.051V7.899C2 4.371 4.27 2 7.65 2H16.3C19.685 2 21.96 4.371 21.96 7.899V16.051C21.96 19.579 19.685 21.95 16.3 21.95Z" fill="#070632"/>
</g>
<path fill-rule="evenodd" clip-rule="evenodd" d="M5.28126 17.1789C5.09526 17.1789 4.91026 17.1109 4.76526 16.9729C4.46426 16.6889 4.45226 16.2129 4.73726 15.9139L6.26526 14.3009C7.07426 13.4419 8.43926 13.3999 9.30226 14.2099L10.2603 15.1819C10.5273 15.4519 10.9613 15.4569 11.2293 15.1929C11.3303 15.0739 13.5083 12.4289 13.5083 12.4289C13.9223 11.9269 14.5063 11.6169 15.1553 11.5529C15.8053 11.4959 16.4363 11.6849 16.9393 12.0979C16.9823 12.1329 17.0213 12.1669 19.2173 14.4219C19.5063 14.7179 19.5013 15.1929 19.2043 15.4819C18.9083 15.7729 18.4323 15.7639 18.1433 15.4679C18.1433 15.4679 16.0943 13.3649 15.9483 13.2229C15.7933 13.0959 15.5443 13.0219 15.2993 13.0459C15.0503 13.0709 14.8263 13.1899 14.6673 13.3829C12.3433 16.2019 12.3153 16.2289 12.2773 16.2659C11.4193 17.1079 10.0343 17.0939 9.19126 16.2339C9.19126 16.2339 8.26126 15.2899 8.24526 15.2709C8.01426 15.0569 7.60226 15.0709 7.35526 15.3319L5.82526 16.9449C5.67726 17.1009 5.47926 17.1789 5.28126 17.1789Z" fill="#070632"/>
<path fill-rule="evenodd" clip-rule="evenodd" d="M8.55769 8.12891C8.00469 8.12891 7.55469 8.57891 7.55469 9.13291C7.55469 9.68691 8.00469 10.1379 8.55869 10.1379C9.11269 10.1379 9.56369 9.68691 9.56369 9.13291C9.56369 8.57991 9.11269 8.12991 8.55769 8.12891ZM8.55869 11.6379C7.17769 11.6379 6.05469 10.5139 6.05469 9.13291C6.05469 7.75191 7.17769 6.62891 8.55869 6.62891C9.94069 6.62991 11.0637 7.75391 11.0637 9.13291C11.0637 10.5139 9.93969 11.6379 8.55869 11.6379Z" fill="#070632"/>
</svg>
