<svg width="0" height="0" viewBox="0 0 48 48" fill="currentColor" xmlns="http://www.w3.org/2000/svg">
<path d="M31.6465 32.9202L17.6738 11.1964L12.4925 22.8808L12.5156 22.8695L4.00006 28.3466L10.3699 38.2506L13.464 36.2599C13.5093 36.409 13.5465 36.5599 13.6353 36.6972L17.821 43.2049C18.3394 44.0078 19.4088 44.2421 20.2123 43.7255C21.0198 43.2049 21.2536 42.1354 20.7307 41.332L16.5472 34.8244C16.4584 34.6866 16.3361 34.5896 16.2192 34.4868L18.8827 32.773L18.8624 32.787L31.6465 32.9202Z" fill="currentColor"/>
<path d="M32.6633 4.90856L31.6192 4L24.9507 11.6206L25.9921 12.5291L32.6633 4.90856Z" fill="currentColor"/>
<path d="M42.3997 22.1948L32.7023 24.5172L33.0259 25.864L42.7187 23.5393L42.3997 22.1948Z" fill="currentColor"/>
<path d="M29.6595 18.8927L41.5138 11.313L40.7684 10.1475L28.9159 17.7268L29.6595 18.8927Z" fill="currentColor"/>
</svg>
