<svg width="0" height="0" viewBox="0 0 24 24" fill="currentColor" xmlns="http://www.w3.org/2000/svg">
<path d="M1.95996 4.80008L14 3.08008V5.00008H21C21.2652 5.00008 21.5195 5.10544 21.7071 5.29297C21.8946 5.48051 22 5.73486 22 6.00008V10.0001C22 10.2653 21.8946 10.5196 21.7071 10.7072C21.5195 10.8947 21.2652 11.0001 21 11.0001H20V19.0001H14V21.0001L1.95996 19.2101V4.80008ZM11 16.7501V8.25008L8.99996 8.50008V12.7501L6.99996 8.75008L4.99996 9.00008V16.0001L6.49996 16.2501V10.7501L8.99996 16.5001L11 16.7501ZM14 14.0001H18V13.0001H14V14.0001ZM14 11.0001H18V10.0001H14V11.0001ZM14 8.00008H18V7.00008H14V8.00008ZM14 16.0001V17.0001H18V16.0001H14Z" fill="currentColor"/>
</svg>
