<svg width="0" height="0" viewBox="0 0 24 24" fill="currentColor" xmlns="http://www.w3.org/2000/svg">
<path d="M12 22.75C6.07 22.75 1.25 17.93 1.25 12C1.25 6.07 6.07 1.25 12 1.25C17.93 1.25 22.75 6.07 22.75 12C22.75 17.93 17.93 22.75 12 22.75ZM12 2.75C6.9 2.75 2.75 6.9 2.75 12C2.75 17.1 6.9 21.25 12 21.25C17.1 21.25 21.25 17.1 21.25 12C21.25 6.9 17.1 2.75 12 2.75Z" fill="currentColor"/>
<path d="M12 10.5C11.59 10.5 11.25 10.84 11.25 11.25V16.25C11.25 16.66 11.59 17 12 17C12.41 17 12.75 16.66 12.75 16.25V11.25C12.75 10.84 12.41 10.5 12 10.5Z" fill="currentColor"/>
<path d="M12 7.24829C11.87 7.24829 11.74 7.27829 11.62 7.32829C11.5 7.37829 11.39 7.44829 11.29 7.53829C11.2 7.63829 11.13 7.73829 11.08 7.86829C11.03 7.98829 11 8.11829 11 8.24829C11 8.37829 11.03 8.50829 11.08 8.62829C11.13 8.74829 11.2 8.85829 11.29 8.95829C11.39 9.04829 11.5 9.11829 11.62 9.16829C11.86 9.26829 12.14 9.26829 12.38 9.16829C12.5 9.11829 12.61 9.04829 12.71 8.95829C12.8 8.85829 12.87 8.74829 12.92 8.62829C12.97 8.50829 13 8.37829 13 8.24829C13 8.11829 12.97 7.98829 12.92 7.86829C12.87 7.73829 12.8 7.63829 12.71 7.53829C12.61 7.44829 12.5 7.37829 12.38 7.32829C12.26 7.27829 12.13 7.24829 12 7.24829Z" fill="currentColor"/>
</svg>
