<svg width="0" height="0" viewBox="0 0 16 16" fill="currentColor" xmlns="http://www.w3.org/2000/svg">
<circle cx="8.00016" cy="8.00016" r="6.66667" fill="currentColor"/>
<path d="M8 7.00016C7.72667 7.00016 7.5 7.22683 7.5 7.50016V10.8335C7.5 11.1068 7.72667 11.3335 8 11.3335C8.27333 11.3335 8.5 11.1068 8.5 10.8335V7.50016C8.5 7.22683 8.27333 7.00016 8 7.00016Z" fill="white"/>
<path d="M8.00016 4.8326C7.9135 4.8326 7.82683 4.8526 7.74683 4.88593C7.66683 4.91926 7.5935 4.96593 7.52683 5.02593C7.46683 5.0926 7.42016 5.15926 7.38683 5.24593C7.3535 5.32593 7.3335 5.4126 7.3335 5.49926C7.3335 5.58593 7.3535 5.6726 7.38683 5.7526C7.42016 5.8326 7.46683 5.90593 7.52683 5.9726C7.5935 6.0326 7.66683 6.07926 7.74683 6.1126C7.90683 6.17926 8.0935 6.17926 8.2535 6.1126C8.3335 6.07926 8.40683 6.0326 8.4735 5.9726C8.5335 5.90593 8.58016 5.8326 8.6135 5.7526C8.64683 5.6726 8.66683 5.58593 8.66683 5.49926C8.66683 5.4126 8.64683 5.32593 8.6135 5.24593C8.58016 5.15926 8.5335 5.0926 8.4735 5.02593C8.40683 4.96593 8.3335 4.91926 8.2535 4.88593C8.1735 4.8526 8.08683 4.8326 8.00016 4.8326Z" fill="white"/>
</svg>
