<svg width="1280" height="201" viewBox="0 0 1280 201" fill="none" xmlns="http://www.w3.org/2000/svg">
<path opacity="0.7" d="M0 107C0 107 225.593 166.557 434.222 139.78C472.961 134.815 460.055 141.14 711.862 78.4143C811.483 58.9824 1022.03 9.55422 1280 28.5003V201H0V107Z" fill="#078E8C"/>
<path d="M0 107.5C0 107.5 226.115 184.347 434.744 149.729C473.483 143.297 460.577 151.478 712.384 70.2525C812.005 45.1271 1022 -17.9779 1279.97 6.56455" stroke="#E84267" stroke-miterlimit="10"/>
<path d="M0 106C0 106 226.325 164.944 434.964 138.294C473.703 133.348 460.787 139.644 712.604 77.0832C812.215 57.7388 1022.22 9.16874 1280.18 28.0565" stroke="#E84267" stroke-miterlimit="10"/>
</svg>
