<svg width="0" height="0" viewBox="0 0 18 15" fill="none" xmlns="http://www.w3.org/2000/svg">
    <path
        d="M14.9582 3.66671C14.8127 3.41481 14.6039 3.20536 14.3525 3.05917C14.101 2.91297 13.8157 2.83513 13.5248 2.83337H11.4998V1.16671C11.4998 0.945694 11.412 0.733732 11.2558 0.577452C11.0995 0.421172 10.8875 0.333374 10.6665 0.333374H2.33317C1.89114 0.333374 1.46722 0.508969 1.15466 0.821529C0.842099 1.13409 0.666504 1.55801 0.666504 2.00004V10.3334C0.666804 10.6256 0.743956 10.9127 0.890222 11.1657C1.03649 11.4188 1.24672 11.6289 1.49984 11.775C1.47 12.5486 1.74868 13.3023 2.27456 13.8704C2.80044 14.4385 3.53046 14.7744 4.304 14.8042C5.07755 14.834 5.83127 14.5554 6.39935 14.0295C6.96743 13.5036 7.30333 12.7736 7.33317 12H9.9165C10.0087 12.6973 10.3511 13.3373 10.8799 13.8009C11.4088 14.2645 12.0882 14.5201 12.7915 14.5201C13.4948 14.5201 14.1742 14.2645 14.7031 13.8009C15.232 13.3373 15.5744 12.6973 15.6665 12C16.1085 12 16.5325 11.8244 16.845 11.5119C17.1576 11.1993 17.3332 10.7754 17.3332 10.3334V7.83337C17.3319 7.68135 17.2917 7.53218 17.2165 7.40004L14.9582 3.66671ZM11.4998 4.50004H13.5248L15.0248 7.00004H11.4998V4.50004ZM4.4165 12.8334C4.16928 12.8334 3.9276 12.7601 3.72204 12.6227C3.51648 12.4854 3.35626 12.2901 3.26165 12.0617C3.16704 11.8333 3.14229 11.582 3.19052 11.3395C3.23875 11.097 3.3578 10.8743 3.53262 10.6995C3.70744 10.5247 3.93016 10.4056 4.17264 10.3574C4.41512 10.3092 4.66645 10.3339 4.89486 10.4285C5.12327 10.5231 5.31849 10.6833 5.45584 10.8889C5.59319 11.0945 5.6665 11.3361 5.6665 11.5834C5.6665 11.9149 5.53481 12.2328 5.30039 12.4673C5.06597 12.7017 4.74802 12.8334 4.4165 12.8334ZM12.7498 12.8334C12.5026 12.8334 12.2609 12.7601 12.0554 12.6227C11.8498 12.4854 11.6896 12.2901 11.595 12.0617C11.5004 11.8333 11.4756 11.582 11.5239 11.3395C11.5721 11.097 11.6911 10.8743 11.866 10.6995C12.0408 10.5247 12.2635 10.4056 12.506 10.3574C12.7485 10.3092 12.9998 10.3339 13.2282 10.4285C13.4566 10.5231 13.6518 10.6833 13.7892 10.8889C13.9265 11.0945 13.9998 11.3361 13.9998 11.5834C13.9998 11.9149 13.8681 12.2328 13.6337 12.4673C13.3993 12.7017 13.0814 12.8334 12.7498 12.8334Z"
        fill="currentColor" />
</svg>