<svg width="0" height="0" viewBox="0 0 24 24" fill="currentColor" xmlns="http://www.w3.org/2000/svg">
<path d="M16.5835 17.4166C16.3625 17.4166 16.1505 17.5044 15.9942 17.6607C15.8379 17.817 15.7501 18.029 15.7501 18.25V18.6667C15.7501 18.7772 15.7062 18.8832 15.6281 18.9613C15.5499 19.0394 15.444 19.0833 15.3335 19.0833H10.7501C10.6396 19.0833 10.5336 19.0394 10.4555 18.9613C10.3773 18.8832 10.3334 18.7772 10.3334 18.6667V5.3332C10.3334 5.22269 10.3773 5.11671 10.4555 5.03857C10.5336 4.96043 10.6396 4.91653 10.7501 4.91653H15.3335C15.444 4.91653 15.5499 4.96043 15.6281 5.03857C15.7062 5.11671 15.7501 5.22269 15.7501 5.3332V6.16654C15.7501 6.38756 15.8379 6.59952 15.9942 6.7558C16.1505 6.91209 16.3625 6.99988 16.5835 6.99988C16.8045 6.99988 17.0165 6.91209 17.1727 6.7558C17.329 6.59952 17.4168 6.38756 17.4168 6.16654V4.08319C17.4168 3.86217 17.329 3.65021 17.1727 3.49393C17.0165 3.33765 16.8045 3.24985 16.5835 3.24985H10.3334V2.41651C10.3334 2.35416 10.3194 2.29261 10.2924 2.2364C10.2654 2.18019 10.2262 2.13075 10.1776 2.09172C10.1289 2.0527 10.0722 2.02508 10.0115 2.01091C9.95074 1.99674 9.88762 1.99637 9.82674 2.00984L2.32667 3.67652C2.23407 3.697 2.15122 3.74847 2.09183 3.82241C2.03243 3.89635 2.00004 3.98835 2 4.08319V19.9167C1.99985 20.0117 2.03215 20.1038 2.09157 20.178C2.15098 20.2521 2.23393 20.3037 2.32667 20.3242L9.82674 21.9909C9.88774 22.0038 9.95085 22.003 10.0115 21.9886C10.0722 21.9742 10.1289 21.9465 10.1776 21.9075C10.2262 21.8685 10.2655 21.819 10.2925 21.7627C10.3194 21.7065 10.3334 21.6449 10.3334 21.5825V20.7492H16.5835C16.8045 20.7492 17.0165 20.6614 17.1727 20.5051C17.329 20.3488 17.4168 20.1369 17.4168 19.9158V18.2492C17.4166 18.0283 17.3287 17.8165 17.1724 17.6604C17.0162 17.5043 16.8043 17.4166 16.5835 17.4166ZM8.25006 12.4166C8.25006 12.6638 8.17675 12.9055 8.03939 13.1111C7.90204 13.3166 7.70682 13.4769 7.47841 13.5715C7.25 13.6661 6.99866 13.6908 6.75618 13.6426C6.5137 13.5944 6.29097 13.4753 6.11616 13.3005C5.94134 13.1257 5.82229 12.9029 5.77405 12.6605C5.72582 12.418 5.75058 12.1667 5.84519 11.9382C5.9398 11.7098 6.10002 11.5146 6.30558 11.3773C6.51114 11.2399 6.75282 11.1666 7.00005 11.1666C7.33157 11.1666 7.64952 11.2983 7.88394 11.5327C8.11836 11.7671 8.25006 12.0851 8.25006 12.4166Z" fill="currentColor"/>
<path d="M21.6149 11.7234L17.5524 9.01506C17.4269 8.93155 17.2811 8.88364 17.1305 8.87644C16.98 8.86924 16.8303 8.90301 16.6974 8.97416C16.5645 9.04531 16.4534 9.15117 16.3759 9.28047C16.2984 9.40977 16.2574 9.55766 16.2574 9.7084V11.1667H12.8198C12.4883 11.1667 12.1704 11.2984 11.9359 11.5329C11.7015 11.7673 11.5698 12.0852 11.5698 12.4168C11.5698 12.7483 11.7015 13.0662 11.9359 13.3007C12.1704 13.5351 12.4883 13.6668 12.8198 13.6668H16.2574V15.1251C16.2574 15.2759 16.2984 15.4237 16.3759 15.553C16.4534 15.6823 16.5645 15.7882 16.6974 15.8594C16.8303 15.9305 16.98 15.9643 17.1305 15.9571C17.2811 15.9499 17.4269 15.902 17.5524 15.8185L21.6149 13.1101C21.7291 13.034 21.8226 12.9309 21.8874 12.8099C21.9521 12.689 21.9859 12.5539 21.9859 12.4168C21.9859 12.2796 21.9521 12.1445 21.8874 12.0236C21.8226 11.9026 21.7291 11.7995 21.6149 11.7234Z" fill="currentColor"/>
</svg>
