<svg width="0" height="0" viewBox="0 0 20 20" fill="currentColor" xmlns="http://www.w3.org/2000/svg">
<path d="M6.3582 2.97507C6.50769 2.89353 6.66654 3.01897 6.66654 3.18924V14.4667C6.66654 14.664 6.53145 14.8306 6.3582 14.9251L4.39987 16.0417C3.0332 16.8251 1.9082 16.1751 1.9082 14.5917V6.4834C1.9082 5.9584 2.2832 5.3084 2.74987 5.04173L6.3582 2.97507Z" fill="currentColor"/>
<path d="M12.2219 5.06214C12.3922 5.1465 12.5 5.32013 12.5 5.51021V16.2868C12.5 16.6553 12.115 16.8972 11.783 16.7372L8.40798 15.1112C8.23498 15.0279 8.125 14.8528 8.125 14.6608V3.83878C8.125 3.46792 8.51456 3.22613 8.8469 3.39071L12.2219 5.06214Z" fill="currentColor"/>
<path d="M18.333 5.40806V13.5164C18.333 14.0414 17.958 14.6914 17.4913 14.9581L14.7066 16.554C14.3733 16.7451 13.958 16.5044 13.958 16.1202V5.32338C13.958 5.14387 14.0542 4.97813 14.2101 4.88914L15.8413 3.95806C17.208 3.17473 18.333 3.82473 18.333 5.40806Z" fill="currentColor"/>
</svg>
