<svg width="0" height="0" viewBox="0 0 22 22" fill="currentColor" xmlns="http://www.w3.org/2000/svg">
<path fill-rule="evenodd" clip-rule="evenodd" d="M3.68209 16.3542C3.97139 16.6443 4.11624 17.0483 4.0772 17.4561C3.98969 18.3701 3.78815 19.3213 3.52931 20.2049C5.44728 19.7616 6.61867 19.2474 7.15112 18.9776C7.45336 18.8244 7.8015 18.7883 8.12876 18.876C9.03329 19.1185 9.9973 19.25 11 19.25C16.4939 19.25 20.625 15.3896 20.625 11C20.625 6.61037 16.4939 2.75 11 2.75C5.50605 2.75 1.375 6.61037 1.375 11C1.375 13.0186 2.22379 14.8918 3.68209 16.3542ZM3.00423 21.7235C2.99497 21.7254 2.9857 21.7272 2.97641 21.729C2.85015 21.7539 2.72143 21.7784 2.59025 21.8024C2.40624 21.8361 2.21738 21.8689 2.02362 21.9007C1.74997 21.9455 1.5405 21.6592 1.6486 21.4038C1.71922 21.237 1.78884 21.0621 1.85666 20.8808C1.89975 20.7657 1.94212 20.6479 1.98356 20.5279C1.98534 20.5228 1.98713 20.5176 1.98891 20.5124C2.32956 19.5228 2.60695 18.3853 2.70845 17.3251C1.02171 15.6336 0 13.4212 0 11C0 5.68426 4.92487 1.375 11 1.375C17.0751 1.375 22 5.68426 22 11C22 16.3157 17.0751 20.625 11 20.625C9.87696 20.625 8.79323 20.4777 7.77265 20.2041C7.05838 20.566 5.51971 21.2249 3.00423 21.7235Z" fill="currentColor"/>
<path d="M6.875 11C6.875 11.7594 6.25939 12.375 5.5 12.375C4.74061 12.375 4.125 11.7594 4.125 11C4.125 10.2406 4.74061 9.625 5.5 9.625C6.25939 9.625 6.875 10.2406 6.875 11Z" fill="currentColor"/>
<path d="M12.375 11C12.375 11.7594 11.7594 12.375 11 12.375C10.2406 12.375 9.625 11.7594 9.625 11C9.625 10.2406 10.2406 9.625 11 9.625C11.7594 9.625 12.375 10.2406 12.375 11Z" fill="currentColor"/>
<path d="M17.875 11C17.875 11.7594 17.2594 12.375 16.5 12.375C15.7406 12.375 15.125 11.7594 15.125 11C15.125 10.2406 15.7406 9.625 16.5 9.625C17.2594 9.625 17.875 10.2406 17.875 11Z" fill="currentColor"/>
</svg>
