<svg width="0" height="0" viewBox="0 0 20 20" fill="currentColor" xmlns="http://www.w3.org/2000/svg">
<path d="M15 0.430176H5C2 0.430176 0 2.43018 0 5.43018V11.4302C0 14.4302 2 16.4302 5 16.4302H9L13.45 19.3902C14.11 19.8302 15 19.3602 15 18.5602V16.4302C18 16.4302 20 14.4302 20 11.4302V5.43018C20 2.43018 18 0.430176 15 0.430176ZM13.5 9.25018H6.5C6.09 9.25018 5.75 8.91018 5.75 8.50018C5.75 8.09018 6.09 7.75018 6.5 7.75018H13.5C13.91 7.75018 14.25 8.09018 14.25 8.50018C14.25 8.91018 13.91 9.25018 13.5 9.25018Z" fill="currentColor"/>
</svg>
