<svg width="0" height="0" viewBox="0 0 14 4" fill="currentColor" xmlns="http://www.w3.org/2000/svg">
<path d="M7.18945 0.689453C6.36503 0.689453 5.68945 1.36503 5.68945 2.18945C5.68945 3.01388 6.36503 3.68945 7.18945 3.68945C8.01388 3.68945 8.68945 3.01388 8.68945 2.18945C8.68945 1.36503 8.01388 0.689453 7.18945 0.689453Z" fill="currentColor"/>
<path d="M2.18945 0.689453C1.36503 0.689453 0.689453 1.36503 0.689453 2.18945C0.689453 3.01388 1.36503 3.68945 2.18945 3.68945C3.01388 3.68945 3.68945 3.01388 3.68945 2.18945C3.68945 1.36503 3.01388 0.689453 2.18945 0.689453Z" fill="currentColor"/>
<path d="M12.1895 0.689453C11.365 0.689453 10.6895 1.36503 10.6895 2.18945C10.6895 3.01388 11.365 3.68945 12.1895 3.68945C13.0139 3.68945 13.6895 3.01388 13.6895 2.18945C13.6895 1.36503 13.0139 0.689453 12.1895 0.689453Z" fill="currentColor"/>
</svg>
