<svg width="0" height="0" viewBox="0 0 20 20" fill="none" xmlns="http://www.w3.org/2000/svg">
    <path
        d="M10.625 13.2656H11.1667C11.7083 13.2656 12.1583 12.7823 12.1583 12.199C12.1583 11.474 11.9 11.3323 11.475 11.1823L10.6333 10.8906V13.2656H10.625Z"
        fill="currentColor" />
    <path
        d="M9.97441 1.58205C5.3744 1.59871 1.6494 5.34038 1.66607 9.94038C1.68274 14.5404 5.4244 18.2654 10.0244 18.2487C14.6244 18.232 18.3494 14.4904 18.3327 9.89038C18.3161 5.29038 14.5744 1.57371 9.97441 1.58205ZM11.8827 9.99871C12.5327 10.2237 13.4077 10.707 13.4077 12.1987C13.4077 13.482 12.3994 14.5154 11.1661 14.5154H10.6244V14.9987C10.6244 15.3404 10.3411 15.6237 9.9994 15.6237C9.65774 15.6237 9.3744 15.3404 9.3744 14.9987V14.5154H9.07441C7.70774 14.5154 6.5994 13.3654 6.5994 11.9487C6.5994 11.607 6.88274 11.3237 7.2244 11.3237C7.56607 11.3237 7.8494 11.607 7.8494 11.9487C7.8494 12.6737 8.39941 13.2654 9.07441 13.2654H9.3744V10.4487L8.11607 9.99871C7.46607 9.77371 6.59107 9.29038 6.59107 7.79871C6.59107 6.51538 7.59941 5.48204 8.83274 5.48204H9.3744V4.99871C9.3744 4.65705 9.65774 4.37371 9.9994 4.37371C10.3411 4.37371 10.6244 4.65705 10.6244 4.99871V5.48204H10.9244C12.2911 5.48204 13.3994 6.63204 13.3994 8.04871C13.3994 8.39038 13.1161 8.67371 12.7744 8.67371C12.4327 8.67371 12.1494 8.39038 12.1494 8.04871C12.1494 7.32371 11.5994 6.73204 10.9244 6.73204H10.6244V9.54871L11.8827 9.99871Z"
        fill="currentColor" />
    <path
        d="M7.84961 7.80938C7.84961 8.53438 8.10794 8.67604 8.53294 8.82604L9.37461 9.11771V6.73438H8.83294C8.29128 6.73438 7.84961 7.21771 7.84961 7.80938Z"
        fill="currentColor" />
</svg>