<svg width="0" height="0" viewBox="0 0 22 22" fill="currentColor" xmlns="http://www.w3.org/2000/svg">
<path fill-rule="evenodd" clip-rule="evenodd" d="M18.865 13.6767L18.1042 12.9342C17.7031 12.4737 17.1602 12.1598 16.5611 12.042C15.9619 11.9241 15.3406 12.0091 14.795 12.2834C13.8783 12.6134 13.0167 12.9067 11.2842 11.1742C9.55168 9.44171 9.84501 8.62587 10.1842 7.66337C10.4562 7.11885 10.5399 6.49946 10.4221 5.90227C10.3043 5.30508 9.99175 4.76384 9.53335 4.36337C9.24918 4.08837 9.00168 3.82254 8.78168 3.58421C7.85585 2.61254 7.12251 1.83337 6.10501 1.83337C5.08751 1.83337 4.33585 2.35587 3.01585 3.66671L2.93335 3.75837C2.57762 4.085 2.29553 4.48365 2.10586 4.92779C1.91619 5.37193 1.82329 5.85137 1.83335 6.33421C1.83335 8.62587 3.66668 11.6142 7.24168 15.2167C10.8167 18.8192 13.8142 20.625 16.0967 20.625C16.5986 20.621 17.0943 20.514 17.5531 20.3106C18.012 20.1072 18.4242 19.8117 18.7642 19.4425C20.075 18.1225 20.5975 17.2334 20.5975 16.3625C20.6158 15.3359 19.8458 14.6025 18.865 13.6767ZM17.875 18.4159L17.7192 18.5625C17.5187 18.7879 17.271 18.9664 16.9938 19.0852C16.7165 19.204 16.4165 19.2603 16.115 19.25C14.8042 19.25 12.3658 18.3792 8.23168 14.245C4.09751 10.1109 3.19918 7.65421 3.20835 6.34337C3.20006 6.04351 3.25728 5.74545 3.37602 5.46998C3.49476 5.1945 3.67216 4.94824 3.89585 4.74837L3.99668 4.63837C4.95918 3.66671 5.63751 3.20837 6.07752 3.20837C6.51751 3.20837 7.04918 3.76754 7.77335 4.52837C8.01168 4.77587 8.25918 5.05087 8.55251 5.33504C9.27668 6.05921 9.14835 6.42587 8.87335 7.21421C8.48835 8.31421 7.95668 9.80837 10.3033 12.1459C12.65 14.4834 14.1442 13.9792 15.2442 13.5759C16.0325 13.3009 16.39 13.1725 17.1233 13.9059C17.3983 14.1809 17.6642 14.4375 17.9117 14.6667C18.6817 15.4 19.2317 15.9317 19.2408 16.3717C19.25 16.8117 18.7917 17.4992 17.875 18.4159Z" fill="currentColor"/>
</svg>
