<svg width="0" height="0" viewBox="0 0 20 20" fill="none" xmlns="http://www.w3.org/2000/svg">
    <path
        d="M2.14992 15.8416L2.13325 15.8583C1.90825 15.3666 1.76659 14.8083 1.70825 14.1917C1.76659 14.8 1.92492 15.35 2.14992 15.8416Z"
        fill="currentColor" />
    <path
        d="M7.49994 8.65002C8.5953 8.65002 9.48327 7.76205 9.48327 6.66668C9.48327 5.57132 8.5953 4.68335 7.49994 4.68335C6.40457 4.68335 5.5166 5.57132 5.5166 6.66668C5.5166 7.76205 6.40457 8.65002 7.49994 8.65002Z"
        fill="currentColor" />
    <path
        d="M13.4917 1.66669H6.50841C3.47508 1.66669 1.66675 3.47502 1.66675 6.50835V13.4917C1.66675 14.4 1.82508 15.1917 2.13341 15.8584C2.85008 17.4417 4.38341 18.3334 6.50841 18.3334H13.4917C16.5251 18.3334 18.3334 16.525 18.3334 13.4917V11.5834V6.50835C18.3334 3.47502 16.5251 1.66669 13.4917 1.66669ZM16.9751 10.4167C16.3251 9.85835 15.2751 9.85835 14.6251 10.4167L11.1584 13.3917C10.5084 13.95 9.45842 13.95 8.80841 13.3917L8.52508 13.1584C7.93341 12.6417 6.99175 12.5917 6.32508 13.0417L3.20841 15.1334C3.02508 14.6667 2.91675 14.125 2.91675 13.4917V6.50835C2.91675 4.15835 4.15841 2.91669 6.50841 2.91669H13.4917C15.8417 2.91669 17.0834 4.15835 17.0834 6.50835V10.5084L16.9751 10.4167Z"
        fill="#AAAFBB" />
</svg>