<svg width="0" height="0" viewBox="0 0 24 16" fill="currentColor" xmlns="http://www.w3.org/2000/svg">
<path d="M5.74299 6.1533C5.74299 6.1533 2.86477 4.37159 1.77526 4.35358C1.29489 4.34578 0 5.08906 0 5.08906C0 5.08906 0.961286 6.41835 2.14757 7.64254L5.74299 6.1533Z" fill="currentColor"/>
<path d="M20.0321 2.66155C19.8413 2.74031 19.6227 2.64972 19.5434 2.45886C19.4644 2.268 19.555 2.04918 19.7461 1.97015L23.2281 0.527954C22.6977 0.128763 21.9773 0.0104837 21.3195 0.283063L16.019 2.47848L8.89885 0L6.32735 1.06505L11.1021 4.51503L6.19698 6.54701L2.60156 8.03625C3.65667 9.12469 4.88946 10.1293 5.78354 10.0416C7.45746 9.87737 10.1905 9.00372 12.9814 7.96287L11.8609 15.1276L14.3098 14.1134L18.1254 5.91046C20.8093 4.7817 22.8031 3.86477 22.8031 3.86477C23.7918 3.45509 24.2617 2.32123 23.8517 1.33225C23.8216 1.25887 23.7859 1.18951 23.748 1.12231L20.0321 2.66155Z" fill="currentColor"/>
</svg>
