<svg width="0" height="0" viewBox="0 0 14 18" fill="none" xmlns="http://www.w3.org/2000/svg">
    <path
        d="M4.50016 9.83334C4.50016 10.4964 4.76355 11.1323 5.2324 11.6011C5.70124 12.0699 6.33712 12.3333 7.00016 12.3333C7.6632 12.3333 8.29909 12.0699 8.76793 11.6011C9.23677 11.1323 9.50016 10.4964 9.50016 9.83334C9.50016 9.1703 9.23677 8.53441 8.76793 8.06557C8.29909 7.59673 7.6632 7.33334 7.00016 7.33334C6.33712 7.33334 5.70124 7.59673 5.2324 8.06557C4.76355 8.53441 4.50016 9.1703 4.50016 9.83334ZM13.6668 15.325V5.66667L8.66683 0.666672H2.00016C1.55814 0.666672 1.13421 0.842266 0.821651 1.15483C0.509091 1.46739 0.333496 1.89131 0.333496 2.33334V15.6667C0.333496 16.1087 0.509091 16.5326 0.821651 16.8452C1.13421 17.1577 1.55814 17.3333 2.00016 17.3333H12.0002C12.3752 17.3333 12.7085 17.2083 12.9918 17L9.30016 13.3083C8.6335 13.7417 7.8335 14 7.00016 14C5.89509 14 4.83529 13.561 4.05388 12.7796C3.27248 11.9982 2.8335 10.9384 2.8335 9.83334C2.8335 8.72827 3.27248 7.66846 4.05388 6.88706C4.83529 6.10566 5.89509 5.66667 7.00016 5.66667C8.10523 5.66667 9.16504 6.10566 9.94644 6.88706C10.7278 7.66846 11.1668 8.72827 11.1668 9.83334C11.1668 10.6667 10.9085 11.4667 10.4752 12.125L13.6668 15.325Z"
        fill="currentColor" />
</svg>