<svg width="0" height="0" viewBox="0 0 20 20" fill="none" xmlns="http://www.w3.org/2000/svg">
    <path
        d="M13.3333 1.66663H6.66667C3.75 1.66663 2.5 3.33329 2.5 5.83329V9.55829C2.5 9.84996 2.78333 10.05 3.05 9.94996C3.96667 9.59163 5.00833 9.47496 6.08333 9.69163C8.25 10.125 9.975 11.9083 10.3333 14.0833C10.55 15.4083 10.2833 16.6666 9.675 17.7083C9.50833 17.9833 9.70833 18.3333 10.0333 18.3333H13.3333C16.25 18.3333 17.5 16.6666 17.5 14.1666V5.83329C17.5 3.33329 16.25 1.66663 13.3333 1.66663ZM15.4167 7.70829H13.75C12.4833 7.70829 11.4583 6.68329 11.4583 5.41663V3.74996C11.4583 3.40829 11.7417 3.12496 12.0833 3.12496C12.425 3.12496 12.7083 3.40829 12.7083 3.74996V5.41663C12.7083 5.99163 13.175 6.45829 13.75 6.45829H15.4167C15.7583 6.45829 16.0417 6.74163 16.0417 7.08329C16.0417 7.42496 15.7583 7.70829 15.4167 7.70829Z"
        fill="currentColor" />
    <path
        d="M5.3125 16.6333H5.58333C5.85417 16.6333 6.07917 16.3916 6.07917 16.1C6.07917 15.7375 5.95 15.6666 5.7375 15.5916L5.31667 15.4458V16.6333H5.3125Z"
        fill="currentColor" />
    <path
        d="M4.98769 10.7916C2.68769 10.8 0.825191 12.6708 0.833524 14.9708C0.841857 17.2708 2.71269 19.1333 5.01269 19.125C7.31269 19.1166 9.17519 17.2458 9.16686 14.9458C9.15852 12.6458 7.28769 10.7875 4.98769 10.7916ZM5.94186 15C6.26686 15.1125 6.70436 15.3541 6.70436 16.1C6.70436 16.7416 6.20019 17.2583 5.58352 17.2583H5.31269V17.5C5.31269 17.6708 5.17102 17.8125 5.00019 17.8125C4.82936 17.8125 4.68769 17.6708 4.68769 17.5V17.2583H4.53769C3.85436 17.2583 3.30019 16.6833 3.30019 15.975C3.30019 15.8041 3.44186 15.6625 3.61269 15.6625C3.78352 15.6625 3.92519 15.8041 3.92519 15.975C3.92519 16.3375 4.20019 16.6333 4.53769 16.6333H4.68769V15.225L4.05852 15C3.73352 14.8875 3.29602 14.6458 3.29602 13.9C3.29602 13.2583 3.80019 12.7416 4.41686 12.7416H4.68769V12.5C4.68769 12.3291 4.82936 12.1875 5.00019 12.1875C5.17102 12.1875 5.31269 12.3291 5.31269 12.5V12.7416H5.46269C6.14602 12.7416 6.70019 13.3166 6.70019 14.025C6.70019 14.1958 6.55852 14.3375 6.38769 14.3375C6.21686 14.3375 6.07519 14.1958 6.07519 14.025C6.07519 13.6625 5.80019 13.3666 5.46269 13.3666H5.31269V14.775L5.94186 15Z"
        fill="currentColor" />
    <path
        d="M3.9248 13.9042C3.9248 14.2667 4.05397 14.3375 4.26647 14.4125L4.6873 14.5584V13.3667H4.41647C4.14564 13.3667 3.9248 13.6084 3.9248 13.9042Z"
        fill="currentColor" />
</svg>