<svg width="0" height="0" viewBox="0 0 24 24" fill="currentColor" xmlns="http://www.w3.org/2000/svg">
<path d="M21.8012 20.7907L18.6404 17.7209C20.2208 16.0465 21.1505 13.814 21.1505 11.3953C21.2434 6.18605 16.8741 2 11.5752 2C6.27632 2 2 6.18605 2 11.3953C2 16.6047 6.27632 20.7907 11.5752 20.7907C13.8993 20.7907 15.9445 20.0465 17.6179 18.7442L20.7786 21.814C20.8716 21.907 21.0575 22 21.2434 22C21.4293 22 21.6153 21.907 21.7082 21.814C22.0801 21.5349 22.0801 21.0698 21.8012 20.7907ZM3.39445 11.3953C3.39445 7.02326 7.11299 3.39535 11.5752 3.39535C16.0375 3.39535 19.756 7.02326 19.756 11.3953C19.756 15.7674 16.0375 19.3953 11.5752 19.3953C7.11299 19.3953 3.39445 15.7674 3.39445 11.3953Z" fill="currentColor"/>
</svg>
