<svg width="0" height="0" viewBox="0 0 41 40" fill="none" xmlns="http://www.w3.org/2000/svg">
    <path
        d="M36.7681 26.533L26.1014 7.33301C24.6681 4.74967 22.6848 3.33301 20.5014 3.33301C18.3181 3.33301 16.3348 4.74967 14.9014 7.33301L4.23476 26.533C2.88476 28.983 2.73476 31.333 3.81809 33.183C4.90143 35.033 7.03476 36.0497 9.83476 36.0497H31.1681C33.9681 36.0497 36.1014 35.033 37.1848 33.183C38.2681 31.333 38.1181 28.9663 36.7681 26.533ZM19.2514 14.9997C19.2514 14.3163 19.8181 13.7497 20.5014 13.7497C21.1848 13.7497 21.7514 14.3163 21.7514 14.9997V23.333C21.7514 24.0163 21.1848 24.583 20.5014 24.583C19.8181 24.583 19.2514 24.0163 19.2514 23.333V14.9997ZM21.6848 29.5163C21.6014 29.583 21.5181 29.6497 21.4348 29.7163C21.3348 29.783 21.2348 29.833 21.1348 29.8663C21.0348 29.9163 20.9348 29.9497 20.8181 29.9663C20.7181 29.983 20.6014 29.9997 20.5014 29.9997C20.4014 29.9997 20.2848 29.983 20.1681 29.9663C20.0681 29.9497 19.9681 29.9163 19.8681 29.8663C19.7681 29.833 19.6681 29.783 19.5681 29.7163C19.4848 29.6497 19.4014 29.583 19.3181 29.5163C19.0181 29.1997 18.8348 28.7663 18.8348 28.333C18.8348 27.8997 19.0181 27.4663 19.3181 27.1497C19.4014 27.083 19.4848 27.0163 19.5681 26.9497C19.6681 26.883 19.7681 26.833 19.8681 26.7997C19.9681 26.7497 20.0681 26.7163 20.1681 26.6997C20.3848 26.6497 20.6181 26.6497 20.8181 26.6997C20.9348 26.7163 21.0348 26.7497 21.1348 26.7997C21.2348 26.833 21.3348 26.883 21.4348 26.9497C21.5181 27.0163 21.6014 27.083 21.6848 27.1497C21.9848 27.4663 22.1681 27.8997 22.1681 28.333C22.1681 28.7663 21.9848 29.1997 21.6848 29.5163Z"
        fill="currentColor" />
</svg>