<svg width="0" height="0" viewBox="0 0 24 24" fill="none" xmlns="http://www.w3.org/2000/svg">
<path d="M4 9C3.71667 9 3.479 8.904 3.287 8.712C3.095 8.52 2.99934 8.28267 3 8V4C3 3.71667 3.096 3.479 3.288 3.287C3.48 3.095 3.71734 2.99934 4 3H8C8.28334 3 8.521 3.096 8.713 3.288C8.905 3.48 9.00067 3.71734 9 4C9 4.28334 8.904 4.521 8.712 4.713C8.52 4.905 8.28267 5.00067 8 5H6.4L8.825 7.425C9.00834 7.60834 9.1 7.83334 9.1 8.1C9.1 8.36667 9 8.6 8.8 8.8C8.61667 8.98334 8.38334 9.075 8.1 9.075C7.81667 9.075 7.58334 8.98334 7.4 8.8L5 6.4V8C5 8.28334 4.90434 8.521 4.713 8.713C4.52167 8.905 4.284 9.00067 4 9ZM15.2 8.8C15.0167 8.61667 14.925 8.38334 14.925 8.1C14.925 7.81667 15.0167 7.58334 15.2 7.4L17.6 5H16C15.7167 5 15.479 4.90434 15.287 4.713C15.095 4.52167 14.9993 4.284 15 4C15 3.71667 15.096 3.479 15.288 3.287C15.48 3.095 15.7173 2.99934 16 3H20C20.2833 3 20.521 3.096 20.713 3.288C20.905 3.48 21.0007 3.71734 21 4V8C21 8.28334 20.904 8.521 20.712 8.713C20.52 8.905 20.2827 9.00067 20 9C19.7167 9 19.479 8.904 19.287 8.712C19.095 8.52 18.9993 8.28267 19 8V6.4L16.575 8.825C16.3917 9.00834 16.1667 9.1 15.9 9.1C15.6333 9.1 15.4 9 15.2 8.8ZM16 21C15.7167 21 15.479 20.904 15.287 20.712C15.095 20.52 14.9993 20.2827 15 20C15 19.7167 15.096 19.479 15.288 19.287C15.48 19.095 15.7173 18.9993 16 19H17.6L15.175 16.575C14.9917 16.3917 14.9 16.1667 14.9 15.9C14.9 15.6333 15 15.4 15.2 15.2C15.3833 15.0167 15.6167 14.925 15.9 14.925C16.1833 14.925 16.4167 15.0167 16.6 15.2L19 17.6V16C19 15.7167 19.096 15.479 19.288 15.287C19.48 15.095 19.7173 14.9993 20 15C20.2833 15 20.521 15.096 20.713 15.288C20.905 15.48 21.0007 15.7173 21 16V20C21 20.2833 20.904 20.521 20.712 20.713C20.52 20.905 20.2827 21.0007 20 21H16ZM4 21C3.71667 21 3.479 20.904 3.287 20.712C3.095 20.52 2.99934 20.2827 3 20V16C3 15.7167 3.096 15.479 3.288 15.287C3.48 15.095 3.71734 14.9993 4 15C4.28334 15 4.521 15.096 4.713 15.288C4.905 15.48 5.00067 15.7173 5 16V17.6L7.425 15.175C7.60834 14.9917 7.83334 14.9 8.1 14.9C8.36667 14.9 8.6 15 8.8 15.2C8.98334 15.3833 9.075 15.6167 9.075 15.9C9.075 16.1833 8.98334 16.4167 8.8 16.6L6.4 19H8C8.28334 19 8.521 19.096 8.713 19.288C8.905 19.48 9.00067 19.7173 9 20C9 20.2833 8.904 20.521 8.712 20.713C8.52 20.905 8.28267 21.0007 8 21H4Z" fill="currentColor"/>
</svg>
