<svg width="0" height="0" viewBox="0 0 24 24" fill="none" xmlns="http://www.w3.org/2000/svg">
<path d="M2.99999 7.99999C2.99999 8.54999 3.44999 8.99999 3.99999 8.99999H7.99999C8.54999 8.99999 8.99999 8.54999 8.99999 7.99999V3.99999C8.99999 3.44999 8.54999 2.99999 7.99999 2.99999C7.44999 2.99999 6.99999 3.44999 6.99999 3.99999V5.58999L4.61999 3.20999C4.52741 3.11741 4.4175 3.04397 4.29653 2.99386C4.17557 2.94376 4.04592 2.91797 3.91499 2.91797C3.78406 2.91797 3.65441 2.94376 3.53345 2.99386C3.41248 3.04397 3.30257 3.11741 3.20999 3.20999C3.11741 3.30257 3.04397 3.41248 2.99386 3.53345C2.94376 3.65441 2.91797 3.78406 2.91797 3.91499C2.91797 4.04592 2.94376 4.17557 2.99386 4.29653C3.04397 4.4175 3.11741 4.52741 3.20999 4.61999L5.58999 6.99999H3.99999C3.44999 6.99999 2.99999 7.44999 2.99999 7.99999ZM20 6.99999H18.41L20.79 4.61999C20.977 4.43301 21.082 4.17942 21.082 3.91499C21.082 3.65056 20.977 3.39697 20.79 3.20999C20.603 3.02301 20.3494 2.91797 20.085 2.91797C19.8206 2.91797 19.567 3.02301 19.38 3.20999L17 5.58999V3.99999C17 3.44999 16.55 2.99999 16 2.99999C15.45 2.99999 15 3.44999 15 3.99999V7.99999C15 8.54999 15.45 8.99999 16 8.99999H20C20.55 8.99999 21 8.54999 21 7.99999C21 7.44999 20.55 6.99999 20 6.99999ZM3.99999 17H5.58999L3.20999 19.38C3.02301 19.567 2.91797 19.8206 2.91797 20.085C2.91797 20.3494 3.02301 20.603 3.20999 20.79C3.39697 20.977 3.65056 21.082 3.91499 21.082C4.17942 21.082 4.43301 20.977 4.61999 20.79L6.99999 18.41V20C6.99999 20.55 7.44999 21 7.99999 21C8.54999 21 8.99999 20.55 8.99999 20V16C8.99999 15.45 8.54999 15 7.99999 15H3.99999C3.44999 15 2.99999 15.45 2.99999 16C2.99999 16.55 3.44999 17 3.99999 17ZM21 16C21 15.45 20.55 15 20 15H16C15.45 15 15 15.45 15 16V20C15 20.55 15.45 21 16 21C16.55 21 17 20.55 17 20V18.41L19.38 20.79C19.567 20.977 19.8206 21.082 20.085 21.082C20.3494 21.082 20.603 20.977 20.79 20.79C20.977 20.603 21.082 20.3494 21.082 20.085C21.082 19.8206 20.977 19.567 20.79 19.38L18.41 17H20C20.55 17 21 16.55 21 16Z" fill="currentColor"/>
</svg>
